<svg width="15" height="16" viewBox="0 0 15 16" fill="none" xmlns="http://www.w3.org/2000/svg">
<g clip-path="url(#clip0_1739_8441)">
<path d="M3.75 7.0625H6.5625V15.5H3.75V7.0625ZM4.6875 14.5625H5.625V8H4.6875V14.5625ZM7.5 8.9375H10.3125V15.5H7.5V8.9375ZM8.4375 14.5625H9.375V9.875H8.4375V14.5625ZM0 10.8125H2.8125V15.5H0V10.8125ZM0.9375 14.5625H1.875V11.75H0.9375V14.5625ZM11.25 5.1875H14.0625V15.5H11.25V5.1875ZM12.1875 14.5625H13.125V6.125H12.1875V14.5625ZM10.1733 5.04834C10.2661 5.24854 10.3125 5.45117 10.3125 5.65625C10.3125 5.85156 10.2759 6.03467 10.2026 6.20557C10.1294 6.37646 10.0293 6.52539 9.90234 6.65234C9.77539 6.7793 9.62646 6.87939 9.45557 6.95264C9.28467 7.02588 9.10156 7.0625 8.90625 7.0625C8.71094 7.0625 8.52783 7.02588 8.35693 6.95264C8.18604 6.87939 8.03711 6.7793 7.91016 6.65234C7.7832 6.52539 7.68311 6.37646 7.60986 6.20557C7.53662 6.03467 7.5 5.85156 7.5 5.65625V5.56836C7.5 5.53906 7.50244 5.50977 7.50732 5.48047L6.13037 4.79199C6.00342 4.91895 5.85449 5.0166 5.68359 5.08496C5.5127 5.15332 5.33691 5.1875 5.15625 5.1875C4.95117 5.1875 4.74854 5.14111 4.54834 5.04834L2.67334 6.92334C2.76611 7.12354 2.8125 7.32617 2.8125 7.53125C2.8125 7.72656 2.77588 7.90967 2.70264 8.08057C2.62939 8.25146 2.5293 8.40039 2.40234 8.52734C2.27539 8.6543 2.12646 8.75439 1.95557 8.82764C1.78467 8.90088 1.60156 8.9375 1.40625 8.9375C1.21094 8.9375 1.02783 8.90088 0.856934 8.82764C0.686035 8.75439 0.537109 8.6543 0.410156 8.52734C0.283203 8.40039 0.183105 8.25146 0.109863 8.08057C0.0366211 7.90967 0 7.72656 0 7.53125C0 7.33594 0.0366211 7.15283 0.109863 6.98193C0.183105 6.81104 0.283203 6.66211 0.410156 6.53516C0.537109 6.4082 0.686035 6.30811 0.856934 6.23486C1.02783 6.16162 1.21094 6.125 1.40625 6.125C1.61133 6.125 1.81396 6.17139 2.01416 6.26416L3.88916 4.38916C3.79639 4.18896 3.75 3.98633 3.75 3.78125C3.75 3.58594 3.78662 3.40283 3.85986 3.23193C3.93311 3.06104 4.0332 2.91211 4.16016 2.78516C4.28711 2.6582 4.43604 2.55811 4.60693 2.48486C4.77783 2.41162 4.96094 2.375 5.15625 2.375C5.35156 2.375 5.53467 2.41162 5.70557 2.48486C5.87646 2.55811 6.02539 2.6582 6.15234 2.78516C6.2793 2.91211 6.37939 3.06104 6.45264 3.23193C6.52588 3.40283 6.5625 3.58594 6.5625 3.78125V3.86914C6.5625 3.89844 6.56006 3.92773 6.55518 3.95703L7.93213 4.64551C8.05908 4.51855 8.20801 4.4209 8.37891 4.35254C8.5498 4.28418 8.72559 4.25 8.90625 4.25C9.11133 4.25 9.31396 4.29639 9.51416 4.38916L11.3892 2.51416C11.2964 2.31396 11.25 2.11133 11.25 1.90625C11.25 1.71094 11.2866 1.52783 11.3599 1.35693C11.4331 1.18604 11.5332 1.03711 11.6602 0.910156C11.7871 0.783203 11.936 0.683105 12.1069 0.609863C12.2778 0.536621 12.4609 0.5 12.6562 0.5C12.8516 0.5 13.0347 0.536621 13.2056 0.609863C13.3765 0.683105 13.5254 0.783203 13.6523 0.910156C13.7793 1.03711 13.8794 1.18604 13.9526 1.35693C14.0259 1.52783 14.0625 1.71094 14.0625 1.90625C14.0625 2.10156 14.0259 2.28467 13.9526 2.45557C13.8794 2.62646 13.7793 2.77539 13.6523 2.90234C13.5254 3.0293 13.3765 3.12939 13.2056 3.20264C13.0347 3.27588 12.8516 3.3125 12.6562 3.3125C12.4512 3.3125 12.2485 3.26611 12.0483 3.17334L10.1733 5.04834ZM1.40625 8C1.5332 8 1.64307 7.95361 1.73584 7.86084C1.82861 7.76807 1.875 7.6582 1.875 7.53125C1.875 7.4043 1.82861 7.29443 1.73584 7.20166C1.64307 7.10889 1.5332 7.0625 1.40625 7.0625C1.2793 7.0625 1.16943 7.10889 1.07666 7.20166C0.983887 7.29443 0.9375 7.4043 0.9375 7.53125C0.9375 7.6582 0.983887 7.76807 1.07666 7.86084C1.16943 7.95361 1.2793 8 1.40625 8ZM12.6562 1.4375C12.5293 1.4375 12.4194 1.48389 12.3267 1.57666C12.2339 1.66943 12.1875 1.7793 12.1875 1.90625C12.1875 2.0332 12.2339 2.14307 12.3267 2.23584C12.4194 2.32861 12.5293 2.375 12.6562 2.375C12.7832 2.375 12.8931 2.32861 12.9858 2.23584C13.0786 2.14307 13.125 2.0332 13.125 1.90625C13.125 1.7793 13.0786 1.66943 12.9858 1.57666C12.8931 1.48389 12.7832 1.4375 12.6562 1.4375ZM5.15625 4.25C5.2832 4.25 5.39307 4.20361 5.48584 4.11084C5.57861 4.01807 5.625 3.9082 5.625 3.78125C5.625 3.6543 5.57861 3.54443 5.48584 3.45166C5.39307 3.35889 5.2832 3.3125 5.15625 3.3125C5.0293 3.3125 4.91943 3.35889 4.82666 3.45166C4.73389 3.54443 4.6875 3.6543 4.6875 3.78125C4.6875 3.9082 4.73389 4.01807 4.82666 4.11084C4.91943 4.20361 5.0293 4.25 5.15625 4.25ZM8.90625 6.125C9.0332 6.125 9.14307 6.07861 9.23584 5.98584C9.32861 5.89307 9.375 5.7832 9.375 5.65625C9.375 5.5293 9.32861 5.41943 9.23584 5.32666C9.14307 5.23389 9.0332 5.1875 8.90625 5.1875C8.7793 5.1875 8.66943 5.23389 8.57666 5.32666C8.48389 5.41943 8.4375 5.5293 8.4375 5.65625C8.4375 5.7832 8.48389 5.89307 8.57666 5.98584C8.66943 6.07861 8.7793 6.125 8.90625 6.125Z" fill="black"/>
</g>
<defs>
<clipPath id="clip0_1739_8441">
<rect width="15" height="15" fill="white" transform="translate(0 0.5)"/>
</clipPath>
</defs>
</svg>
