<svg width="24" height="24" viewBox="0 0 24 24" fill="none" xmlns="http://www.w3.org/2000/svg">
<path d="M21.75 4H2.25C1.83516 4 1.5 4.33516 1.5 4.75V19.75C1.5 20.1648 1.83516 20.5 2.25 20.5H21.75C22.1648 20.5 22.5 20.1648 22.5 19.75V4.75C22.5 4.33516 22.1648 4 21.75 4ZM20.8125 6.59687V18.8125H3.1875V6.59687L2.54063 6.09297L3.46172 4.90938L4.46484 5.68984H19.5375L20.5406 4.90938L21.4617 6.09297L20.8125 6.59687ZM19.5375 5.6875L12 11.5469L4.4625 5.6875L3.45938 4.90703L2.53828 6.09062L3.18516 6.59453L11.1914 12.8195C11.4217 12.9984 11.7049 13.0955 11.9965 13.0955C12.2881 13.0955 12.5713 12.9984 12.8016 12.8195L20.8125 6.59687L21.4594 6.09297L20.5383 4.90938L19.5375 5.6875Z" fill="#2D31A6" fill-opacity="0.5"/>
</svg>
