<svg width="36" height="38" viewBox="0 0 36 38" fill="none" xmlns="http://www.w3.org/2000/svg">
<g clip-path="url(#clip0_80_173)">
<path d="M21.4604 30.6317C21.5276 30.5172 21.8181 30.6398 21.8715 30.5359C21.9248 30.4323 21.6548 30.2746 21.5006 29.9141C21.4728 29.8491 21.2975 29.4395 21.4272 29.3131C21.6732 29.0736 22.7986 30.0622 23.1925 29.7387C23.2789 29.6677 23.3393 29.5259 23.6009 29.2958C23.705 29.2043 23.7679 29.1629 23.8288 29.1783C23.9152 29.2001 23.9221 29.3171 24.0147 29.547C24.1537 29.8919 24.2359 29.8711 24.3169 30.1462C24.377 30.3504 24.3633 30.4692 24.434 30.4923C24.5341 30.525 24.6262 30.3084 24.7531 30.3278C24.8825 30.3476 24.9608 30.5998 24.9855 30.7887C25.0319 31.1431 24.9031 31.377 24.8318 31.6229C24.7543 31.8901 24.7083 32.2965 24.8873 32.8718L26.6594 37.9204C26.2682 36.8845 25.1354 34.0446 24.6594 32.9893C24.522 32.6847 24.3703 32.3757 24.0587 32.2537C23.7588 32.1363 23.3469 32.2064 22.8217 32.0785C22.7604 32.0636 22.5902 32.0198 22.5688 31.9186C22.5511 31.8349 22.6512 31.7882 22.6358 31.7098C22.6152 31.6047 22.4183 31.6034 22.1764 31.4821C22.0058 31.3965 21.8995 31.2948 21.8081 31.2074C21.7806 31.181 21.371 30.7841 21.4604 30.6317Z" fill="#F2F2F2"/>
<path d="M28.4325 33.2895C28.5075 33.2898 28.5318 33.4694 28.5976 33.4659C28.6633 33.4624 28.6619 33.283 28.7924 33.1024C28.8159 33.0699 28.9642 32.8647 29.063 32.8926C29.2502 32.9456 29.0951 33.7893 29.3657 33.8915C29.4251 33.9139 29.5114 33.9029 29.6985 33.9664C29.773 33.9916 29.8112 34.0109 29.8213 34.0456C29.8357 34.0947 29.7809 34.1319 29.696 34.2442C29.5687 34.4127 29.6025 34.4475 29.4924 34.567C29.4106 34.6558 29.349 34.6833 29.3581 34.725C29.3711 34.7842 29.5029 34.7674 29.53 34.8359C29.5578 34.9059 29.4579 35.0175 29.3734 35.0842C29.2147 35.2095 29.0641 35.2131 28.9242 35.2487C28.7721 35.2873 28.5615 35.3817 28.3339 35.6366L26.3947 37.9727C26.7846 37.4796 27.8362 36.0981 28.2111 35.5574C28.3194 35.4013 28.4256 35.2368 28.3949 35.047C28.3653 34.8643 28.2124 34.6801 28.123 34.3826C28.1126 34.3478 28.0847 34.2507 28.1277 34.2109C28.1632 34.1779 28.2147 34.2142 28.2483 34.1839C28.2934 34.1433 28.2372 34.0453 28.2263 33.8902C28.2186 33.7809 28.2373 33.6988 28.2534 33.6282C28.2583 33.6069 28.3327 33.2891 28.4325 33.2895Z" fill="#F2F2F2"/>
<path d="M26.937 33.6289L26.9822 33.2212L26.9615 33.1903C26.8661 33.0474 26.8174 32.9078 26.8168 32.7754C26.8167 32.7543 26.8177 32.7332 26.8187 32.7118C26.8225 32.6268 26.8274 32.5211 26.7729 32.3978C26.7423 32.3291 26.6565 32.1701 26.5274 32.1898C26.4927 32.1947 26.4664 32.2108 26.4464 32.2297C26.4435 32.225 26.4405 32.2203 26.4373 32.2152C26.3971 32.1532 26.3653 32.1266 26.3346 32.101C26.311 32.0813 26.2867 32.061 26.2486 32.013C26.2318 31.9919 26.2188 31.9734 26.2078 31.9579C26.1744 31.9108 26.1308 31.8547 26.0539 31.8557C25.9717 31.8597 25.9287 31.9284 25.9002 31.9738C25.8493 32.0549 25.8262 32.1134 25.8109 32.1522C25.8054 32.1663 25.7991 32.1823 25.7958 32.1872C25.7694 32.2266 25.5542 32.1898 25.4731 32.1764C25.291 32.1457 25.1334 32.1191 25.0685 32.2352C25.0219 32.3183 25.0565 32.4281 25.1743 32.5705C25.211 32.6147 25.25 32.6484 25.2846 32.6748C25.2559 32.6921 25.2302 32.7187 25.2198 32.7604C25.1953 32.8592 25.2793 32.9582 25.4694 33.0551C25.5166 33.0793 25.5801 33.1116 25.6692 33.1271C25.7112 33.1344 25.7489 33.1362 25.7812 33.1372C25.7819 33.1561 25.7863 33.1765 25.7977 33.1976C25.8311 33.2596 25.9006 33.2891 26.0053 33.282C26.1206 33.2759 26.2155 33.2537 26.2992 33.2342C26.3723 33.2173 26.4352 33.2029 26.4847 33.2063C26.5764 33.2137 26.647 33.2879 26.73 33.3842L26.937 33.6289Z" fill="#F2F2F2"/>
<path d="M26.7275 31.2018L27.1061 31.3493L27.1409 31.337C27.3018 31.2799 27.4476 31.2677 27.5745 31.3007C27.5947 31.3059 27.6146 31.3122 27.6349 31.3186C27.7152 31.344 27.8151 31.3756 27.9468 31.3535C28.0203 31.341 28.1942 31.2974 28.2081 31.1662C28.2122 31.131 28.2035 31.1012 28.1904 31.0768C28.1957 31.0752 28.201 31.0734 28.2067 31.0716C28.2762 31.048 28.3097 31.0236 28.342 31.0001C28.3668 30.9821 28.3923 30.9634 28.448 30.9383C28.4724 30.9272 28.4934 30.9192 28.511 30.9124C28.5645 30.8916 28.6292 30.8632 28.6478 30.7878C28.6649 30.7064 28.6101 30.6469 28.5738 30.6075C28.5091 30.5371 28.459 30.4997 28.4258 30.4749C28.4137 30.4659 28.4 30.4557 28.3961 30.4513C28.3652 30.4154 28.455 30.2143 28.4884 30.1384C28.5639 29.968 28.6293 29.8206 28.5347 29.7277C28.467 29.6611 28.3532 29.667 28.1872 29.7461C28.1355 29.7708 28.0934 29.8004 28.0594 29.8276C28.0501 29.7951 28.0312 29.7633 27.9939 29.7425C27.9056 29.6934 27.7896 29.7505 27.6487 29.9119C27.6136 29.9519 27.5666 30.0059 27.5291 30.089C27.5115 30.1282 27.5002 30.1647 27.4911 30.1961C27.4728 30.1919 27.4521 30.191 27.4291 30.1968C27.3613 30.2137 27.3154 30.2742 27.2956 30.3785C27.2722 30.4927 27.2695 30.5912 27.2669 30.678C27.2645 30.7538 27.2623 30.819 27.2465 30.8666C27.2161 30.9543 27.1272 31.0046 27.0141 31.0613L26.7275 31.2018Z" fill="#F2F2F2"/>
<path d="M26.937 30.0007L26.9822 29.593L26.9615 29.5621C26.8661 29.4192 26.8174 29.2797 26.8168 29.1472C26.8167 29.1261 26.8177 29.1051 26.8187 29.0836C26.8225 28.9986 26.8274 28.8929 26.7729 28.7697C26.7423 28.701 26.6565 28.5419 26.5274 28.5616C26.4927 28.5665 26.4664 28.5827 26.4464 28.6016C26.4435 28.5968 26.4405 28.5921 26.4373 28.587C26.3971 28.525 26.3653 28.4984 26.3346 28.4728C26.311 28.4531 26.2867 28.4329 26.2486 28.3848C26.2318 28.3638 26.2188 28.3453 26.2078 28.3297C26.1744 28.2827 26.1308 28.2266 26.0539 28.2276C25.9717 28.2315 25.9287 28.3002 25.9002 28.3457C25.8493 28.4268 25.8262 28.4852 25.8109 28.524C25.8054 28.5382 25.7991 28.5541 25.7958 28.559C25.7694 28.5984 25.5542 28.5616 25.4731 28.5482C25.291 28.5175 25.1334 28.4909 25.0685 28.6071C25.0219 28.6901 25.0565 28.8 25.1743 28.9423C25.211 28.9866 25.25 29.0202 25.2846 29.0466C25.2559 29.0639 25.2302 29.0905 25.2198 29.1322C25.1953 29.2311 25.2793 29.3301 25.4694 29.4269C25.5166 29.4511 25.5801 29.4834 25.6692 29.499C25.7112 29.5062 25.7489 29.508 25.7812 29.509C25.7819 29.5279 25.7863 29.5484 25.7977 29.5694C25.8311 29.6314 25.9006 29.661 26.0053 29.6539C26.1206 29.6478 26.2155 29.6255 26.2992 29.606C26.3723 29.5891 26.4352 29.5747 26.4847 29.5781C26.5764 29.5856 26.647 29.6598 26.73 29.756L26.937 30.0007Z" fill="#F2F2F2"/>
<path d="M26.5245 37.9138L26.6089 37.8602L26.7075 37.8716C26.709 37.8624 26.7144 37.8411 26.7224 37.8079C26.7665 37.6256 26.901 37.0709 27.0131 36.1973C27.0913 35.5875 27.1356 34.9605 27.1448 34.3336C27.1539 33.7057 27.1245 33.2303 27.101 32.8482C27.0832 32.5601 27.0616 32.2857 27.0403 32.0183C26.9839 31.3042 26.9306 30.6296 26.9703 29.8828C26.979 29.7161 26.9974 29.3691 27.1979 28.9998C27.3142 28.7856 27.4745 28.5955 27.6742 28.4348L27.55 28.277C27.3295 28.4545 27.1523 28.6651 27.0231 28.9029C26.8008 29.3124 26.7807 29.6905 26.7711 29.8722C26.7308 30.6322 26.7846 31.3133 26.8417 32.0343C26.8627 32.3006 26.8843 32.5738 26.902 32.8608C26.9254 33.2394 26.9545 33.7106 26.9454 34.3305C26.9365 34.9499 26.8927 35.5692 26.8155 36.1713C26.7047 37.0339 26.5723 37.5803 26.5287 37.7598C26.5056 37.8557 26.5007 37.8758 26.5245 37.9138Z" fill="#F2F2F2"/>
<path d="M28.0399 28.7551C28.0481 28.7551 28.0563 28.7549 28.0647 28.7543C28.2345 28.7451 28.3917 28.6423 28.532 28.449C28.5978 28.3581 28.6315 28.2543 28.6987 28.0475C28.7091 28.0156 28.7597 27.8538 28.7904 27.6311C28.8106 27.4857 28.8081 27.4249 28.7795 27.3711C28.7479 27.3113 28.6967 27.2695 28.6391 27.2414C28.6416 27.2221 28.6396 27.2022 28.6313 27.182C28.5973 27.0979 28.507 27.1089 28.4581 27.1142C28.4334 27.1174 28.4026 27.1215 28.3693 27.1197C28.3169 27.1172 28.2888 27.1014 28.2461 27.0778C28.2054 27.0552 28.1546 27.027 28.0794 27.0115C27.9311 26.9802 27.8068 27.0227 27.7658 27.0367C27.5502 27.1093 27.4439 27.2788 27.3209 27.475C27.2963 27.5144 27.2121 27.6577 27.1566 27.8542C27.1165 27.9959 27.1221 28.0589 27.1342 28.1057C27.1587 28.202 27.2166 28.2571 27.3637 28.3787C27.5173 28.5061 27.5944 28.5699 27.6606 28.6087C27.8146 28.6986 27.9114 28.7551 28.0399 28.7551Z" fill="#F2F2F2"/>
<path d="M18.7022 37.5688L18.1801 37.5687L17.9318 35.5327L18.7023 35.5328L18.7022 37.5688Z" fill="#FFB6B6"/>
<path d="M16.9136 37.5568C16.8973 37.5845 16.8887 37.6739 16.8887 37.7061C16.8887 37.805 16.9681 37.8852 17.0659 37.8852H18.6826C18.7493 37.8852 18.8035 37.8305 18.8035 37.763V37.6949C18.8035 37.6949 18.8834 37.4904 18.7188 37.2383C18.7188 37.2383 18.5141 37.4357 18.2083 37.1265L18.1182 36.9613L17.4654 37.444L17.1036 37.489C17.0245 37.4989 16.9543 37.4875 16.9136 37.5568Z" fill="#2F2E41"/>
<path d="M20.2931 37.5688L19.7711 37.5687L19.5227 35.5327L20.2932 35.5328L20.2931 37.5688Z" fill="#FFB6B6"/>
<path d="M18.5045 37.5568C18.4883 37.5845 18.4797 37.6739 18.4797 37.7061C18.4797 37.805 18.559 37.8852 18.6569 37.8852H20.2735C20.3403 37.8852 20.3944 37.8305 20.3944 37.763V37.6949C20.3944 37.6949 20.4744 37.4904 20.3097 37.2383C20.3097 37.2383 20.1051 37.4357 19.7993 37.1265L19.7091 36.9613L19.0564 37.444L18.6946 37.489C18.6154 37.4989 18.5452 37.4875 18.5045 37.5568Z" fill="#2F2E41"/>
<path d="M18.0991 28.7761L17.5422 30.9565L17.8206 36.5556L19.1332 36.6444L19.2127 33.4213L19.3718 36.7392L20.7242 36.4548L20.8037 29.1553L18.0991 28.7761Z" fill="#2F2E41"/>
<path d="M23.4896 21.4351C23.6692 21.1163 23.9775 20.9516 24.1782 21.0673C24.3788 21.1829 24.3957 21.535 24.216 21.8539C24.1459 21.9823 24.0464 22.0918 23.9259 22.1734L23.1478 23.5144L22.5332 23.1318L23.3655 21.8504C23.3735 21.7039 23.416 21.5615 23.4896 21.4351Z" fill="#FFB6B6"/>
<path d="M19.9533 26.1692C19.9533 26.1692 20.6908 27.197 21.1418 26.8297C21.5929 26.4624 24.085 22.3338 24.085 22.3338L23.096 21.7979L19.9533 26.1692Z" fill="#00A2B7"/>
<path d="M20.6445 24.9152L19.6899 23.4674L18.7354 23.8696L18.974 25.1565L20.6445 24.9152Z" fill="#FFB6B6"/>
<path d="M20.565 24.5935L18.8945 24.5131L17.7808 24.8348L17.5421 30.787L20.8832 30.4653V27.3264L21.3605 25.7196L20.565 24.5935Z" fill="#00A2B7"/>
<path d="M17.8081 28.6085C17.8668 28.4354 17.8902 28.2526 17.875 28.0702C17.8323 27.5556 17.8242 26.5473 18.343 26.0917L18.636 25.7707C18.6421 25.7641 18.649 25.7584 18.6552 25.7518L18.1704 24.5995L18.4633 24.4736L18.9132 25.5431C19.1128 25.4203 19.343 25.3523 19.5812 25.3523C19.8562 25.3523 20.1191 25.443 20.3363 25.6027L20.6108 24.586L20.9178 24.6708L20.5746 25.8302C20.5871 25.8456 20.6007 25.8598 20.6125 25.8758L20.7802 26.1033C20.821 26.1587 20.8661 26.2101 20.9149 26.2585C21.0178 26.3604 21.2185 26.6078 21.2205 26.9887C21.2211 27.119 21.2476 27.2479 21.2869 27.3719L21.4862 28.0016C21.5049 28.0607 21.5195 28.1209 21.5295 28.1821C21.6174 28.7213 21.9215 31.2614 19.843 31.2106C17.9054 31.1632 17.7779 29.9702 17.7892 29.574C17.7917 29.4881 17.784 29.4027 17.7682 29.3183C17.7391 29.1633 17.713 28.889 17.8081 28.6085Z" fill="#3F3D56"/>
<path d="M9.05505 2.89697L8.87388 5.72561L11.1522 6.25422L10.9935 3.96713L9.05505 2.89697Z" fill="#FFB6B6"/>
<path d="M8.88159 37.2744L9.90856 37.2743L10.3971 33.2689L8.88139 33.269L8.88159 37.2744Z" fill="#FFB6B6"/>
<path d="M12.4001 37.2508C12.4321 37.3053 12.449 37.481 12.449 37.5443C12.449 37.739 12.2929 37.8968 12.1004 37.8968H8.92002C8.7887 37.8968 8.68223 37.7891 8.68223 37.6563V37.5225C8.68223 37.5225 8.5249 37.1201 8.84882 36.6241C8.84882 36.6241 9.25141 37.0124 9.85297 36.4042L10.0304 36.0792L11.3145 37.0288L12.0262 37.1174C12.182 37.1368 12.32 37.1144 12.4001 37.2508Z" fill="#2F2E41"/>
<path d="M6.09741 37.2744L7.12438 37.2743L7.61292 33.2689L6.09721 33.269L6.09741 37.2744Z" fill="#FFB6B6"/>
<path d="M9.61595 37.2508C9.64792 37.3053 9.66479 37.481 9.66479 37.5443C9.66479 37.739 9.50874 37.8968 9.31624 37.8968H6.13584C6.00452 37.8968 5.89805 37.7891 5.89805 37.6563V37.5225C5.89805 37.5225 5.74072 37.1201 6.06464 36.6241C6.06464 36.6241 6.46723 37.0124 7.06879 36.4042L7.24619 36.0792L8.5303 37.0288L9.24206 37.1174C9.39778 37.1368 9.53585 37.1144 9.61595 37.2508Z" fill="#2F2E41"/>
<path d="M5.45077 18.2391C5.45077 18.2391 4.57573 19.3652 4.73483 20.0087C4.89393 20.6522 6.00761 35.4523 6.00761 35.4523L7.59858 35.3719L8.55316 22.1L8.7987 35.4523L10.3032 35.3719L12.2124 18.8022L5.45077 18.2391Z" fill="#2F2E41"/>
<path d="M14.6488 21.8296C14.7992 22.4126 15.2186 22.8067 15.5855 22.7098C15.9525 22.613 16.1279 22.0619 15.9773 21.4787C15.9203 21.2449 15.8088 21.0283 15.6521 20.8471L14.9838 18.385L13.8479 18.7267L14.6272 21.1176C14.5781 21.3533 14.5855 21.5974 14.6488 21.8296Z" fill="#FFB6B6"/>
<path d="M10.9057 5.24431C9.65033 5.24431 8.63266 4.2153 8.63266 2.94595C8.63266 1.67659 9.65033 0.647583 10.9057 0.647583C12.161 0.647583 13.1787 1.67659 13.1787 2.94595C13.1787 4.2153 12.161 5.24431 10.9057 5.24431Z" fill="#FFB6B6"/>
<path d="M11.1783 5.85212L8.79181 5.36951L6.16671 6.73691L5.60987 15.5044L4.89393 18.8022L12.292 18.8826L11.9738 14.4587L12.451 7.46083L11.1783 5.85212Z" fill="#00A2B7"/>
<path d="M11.7351 7.7021C11.7351 7.7021 13.0079 7.29993 13.4852 8.02385C13.9625 8.74776 14.8375 15.263 14.8375 15.263L15.7125 20.1696L14.1216 20.4109L11.4964 11.8043L11.7351 7.7021Z" fill="#00A2B7"/>
<path d="M0.158096 19.0097C-0.101237 19.5522 -0.0346379 20.1272 0.306808 20.294C0.648254 20.4609 1.13517 20.1563 1.39452 19.6136C1.50106 19.3983 1.55505 19.1603 1.55197 18.9195L2.62207 16.6071L1.53816 16.1224L0.598311 18.4536C0.409749 18.6007 0.258798 18.7915 0.158096 19.0097Z" fill="#FFB6B6"/>
<path d="M7.16296 6.82021C7.16296 6.82021 6.01993 6.12579 5.38722 6.71544C4.75451 7.30508 2.38419 13.4277 2.38419 13.4277L0.389168 17.9871L1.87894 18.6011L6.43785 10.8636L7.16296 6.82021Z" fill="#00A2B7"/>
<path d="M1.66122 37.9043C1.66122 37.9574 1.70339 38 1.75589 38H35.9053C35.9578 38 36 37.9574 36 37.9043C36 37.8786 35.9904 37.856 35.9745 37.8392H28.8374C28.6855 37.8392 28.5367 37.8287 28.3904 37.8086H1.75589C1.70339 37.8086 1.66122 37.8512 1.66122 37.9043Z" fill="#3F3D56"/>
<path d="M15.6433 22.0831C15.5014 21.7454 15.214 21.5458 15.0015 21.6371C14.7889 21.7285 14.7318 22.0763 14.8739 22.4141C14.9288 22.5498 15.015 22.6703 15.1254 22.7654L15.7448 24.1884L16.399 23.8803L15.719 22.5101C15.7279 22.3637 15.7019 22.2173 15.6433 22.0831Z" fill="#FFB6B6"/>
<path d="M19.7802 24.5364C18.9721 24.5364 18.317 23.874 18.317 23.0569C18.317 22.2399 18.9721 21.5775 19.7802 21.5775C20.5882 21.5775 21.2433 22.2399 21.2433 23.0569C21.2433 23.874 20.5882 24.5364 19.7802 24.5364Z" fill="#FFB6B6"/>
<path d="M17.9399 24.8348L16.5081 24.2718L16.0308 22.5826L14.9966 22.9848L15.7921 25.3979L17.9399 26.2276V24.8348Z" fill="#00A2B7"/>
<path d="M19.9725 24.7019L19.0999 23.984C19.0999 23.984 19.1825 22.9081 18.8688 22.8113C18.5551 22.7145 18.2279 22.3281 18.2279 22.3281C18.2279 22.3281 18.7471 21.1421 19.6611 21.3221C20.575 21.502 20.3665 21.2283 20.9297 21.5299C21.4929 21.8315 21.625 22.2339 21.5565 22.6615C21.488 23.089 21.6919 24.1514 21.0097 24.2061C20.3275 24.2608 19.9725 24.7019 19.9725 24.7019Z" fill="#2F2E41"/>
<path d="M12.2824 3.46056C12.4483 3.15469 12.3622 3.00868 12.5118 2.88911C12.5118 2.88911 12.572 2.841 13.0254 2.77972C13.0687 2.02961 13.1889 1.92936 13.1889 1.92936C13.3274 1.81383 13.5477 1.82993 13.6881 1.88241C13.9851 1.9934 13.9748 2.28581 14.172 2.32567C14.4444 2.38074 13.7017 1.90983 13.7104 1.4117C13.7175 1.00536 13.4296 0.634521 13.3294 0.663467C13.23 0.692169 12.9634 0.399467 12.8332 0.414833C12.7442 0.425328 12.3672 0.294606 12.2701 0.315047C12.1641 0.337372 11.8259 0.552156 11.8078 0.510787C11.6822 0.223319 11.7058 0.13884 11.6123 0.061246C11.4468 -0.0762502 11.2036 0.0484552 10.8136 0.136365C10.0112 0.317239 9.84814 0.0581018 9.44673 0.2751C9.24395 0.384717 9.08789 0.648771 8.78405 1.1724C8.35914 1.9047 8.14668 2.27085 8.1771 2.67543C8.20812 3.08803 8.40358 3.04589 8.5386 3.64952C8.68889 4.32145 8.50823 4.64885 8.74988 4.85157C8.93664 5.00825 10.4853 5.02031 10.6585 4.85557C10.955 4.57352 10.4915 3.98817 10.8064 3.50773C10.9997 3.21281 11.4227 3.05436 11.6318 3.17553C11.8683 3.31254 11.7807 3.77781 11.9418 3.80825C12.0797 3.83432 12.2535 3.51386 12.2824 3.46056Z" fill="#2F2E41"/>
<path d="M23.2992 22.1584C22.9826 21.888 23.0667 21.2609 23.487 20.7577C23.671 20.5375 23.889 20.3776 24.1024 20.29L24.3478 20.0037L27.5159 15.9898C27.5159 15.9898 29.2704 11.9969 29.7883 11.5655C30.3062 11.1341 30.9156 11.3587 30.9156 11.3587L31.391 11.9535L28.4283 17.5286L25.3962 20.6141L24.9869 21.0456C24.9372 21.273 24.8177 21.517 24.6336 21.7372C24.2133 22.2403 23.6159 22.4289 23.2992 22.1584Z" fill="#FFB6B6"/>
<path d="M29.2795 12.308L28.4856 13.4853L27.3458 15.191L29.3938 15.9074L31.202 12.7701L29.2795 12.308Z" fill="#E6E6E6"/>
<path d="M28.4735 8.30107L29.0485 10.5177L31.2407 10.0817C31.2407 10.0817 30.3782 8.48276 30.5938 7.75598L28.4735 8.30107Z" fill="#FFB6B6"/>
<path d="M30.7877 37.1553L29.4675 37.1552L28.8395 32.0063L30.788 32.0065L30.7877 37.1553Z" fill="#FFB6B6"/>
<path d="M26.2647 37.1251C26.2236 37.1951 26.2019 37.421 26.2019 37.5024C26.2019 37.7526 26.4025 37.9555 26.65 37.9555H30.7384C30.9072 37.9555 31.044 37.8171 31.044 37.6464V37.4743C31.044 37.4743 31.2463 36.957 30.8299 36.3194C30.8299 36.3194 30.3124 36.8187 29.5391 36.0367L29.311 35.619L27.6603 36.8397L26.7454 36.9536C26.5452 36.9785 26.3677 36.9497 26.2647 37.1251Z" fill="#2F2E41"/>
<path d="M27.122 22.2546L28.9412 34.7714H31.2235L30.92 27.6265L30.7603 23.8697L31.2235 22.0814C31.2235 22.0814 31.4347 21.6839 31.6126 21.2021C31.8131 20.6583 31.9715 20.0065 31.7364 19.6974C31.6499 19.5834 31.4249 19.4991 31.1192 19.4363C30.9324 19.3977 30.715 19.3676 30.4803 19.3443C29.1306 19.2093 27.2108 19.2936 27.2108 19.2936L27.162 20.9221L27.1349 21.8315L27.122 22.2546Z" fill="#2F2E41"/>
<path d="M33.1132 36.5432L31.807 36.7372L30.445 31.7355L32.3727 31.4491L33.1132 36.5432Z" fill="#FFB6B6"/>
<path d="M28.6339 37.1784C28.6033 37.2537 28.6144 37.4805 28.6261 37.561C28.6621 37.8086 28.8897 37.9797 29.1345 37.9433L33.1794 37.342C33.3464 37.3172 33.4619 37.1602 33.4374 36.9913L33.4126 36.821C33.4126 36.821 33.5383 36.2795 33.0346 35.7099C33.0346 35.7099 32.5944 36.28 31.7169 35.6201L31.4312 35.2404L29.9736 36.6909L29.0848 36.9381C28.8903 36.9922 28.7106 36.9898 28.6339 37.1784Z" fill="#2F2E41"/>
<path d="M27.0935 20.167L27.343 22.3398L28.7037 26.9183L30.9436 34.4561L33.2014 34.1206L31.1751 23.4029L31.3757 21.5651C31.3757 21.5651 31.441 21.3825 31.5159 21.115C31.6646 20.5859 31.8511 19.7243 31.6459 19.2848C31.6182 19.2251 31.5835 19.1732 31.5404 19.1312C31.4598 19.0521 31.2958 19.0041 31.0761 18.9786C30.1577 18.8736 28.2664 19.1738 27.4248 19.3212L27.0935 20.167Z" fill="#2F2E41"/>
<path d="M28.8328 9.86358L26.3531 13.0251L26.7982 16.3212L27.1797 19.6751L31.672 18.9847C31.672 18.9847 30.7016 16.6226 30.5938 16.5136C30.486 16.4046 30.2152 16.6739 30.4045 16.3212C30.5938 15.9685 30.8095 15.9685 30.6298 15.7868C30.4501 15.6051 32.0314 13.2431 32.0314 11.9712C32.0314 10.6994 31.2767 9.68188 31.2767 9.68188L28.8328 9.86358Z" fill="#00A2B7"/>
<path d="M29.4114 8.71964C28.4888 8.71964 27.7409 7.9634 27.7409 7.03054C27.7409 6.09767 28.4888 5.34143 29.4114 5.34143C30.334 5.34143 31.0819 6.09767 31.0819 7.03054C31.0819 7.9634 30.334 8.71964 29.4114 8.71964Z" fill="#FFB6B6"/>
<path d="M29.4895 10.2601C29.4895 10.2601 29.2395 8.26013 29.1952 7.67854C29.151 7.09695 28.3391 6.18892 28.3391 6.18892L27.7639 6.65867C27.7639 6.65867 27.2772 6.65867 27.6091 5.94286C27.9409 5.22706 28.5603 5.11522 28.5603 5.11522C28.5603 5.11522 28.6267 4.17572 29.777 4.28757C30.9274 4.39941 31.4362 5.33891 31.4362 5.33891C31.4362 5.33891 31.5026 4.15336 32.2326 5.02574C32.9627 5.89813 33.383 6.25603 32.6087 6.54682C31.8344 6.83762 31.2592 6.61393 31.2592 6.61393C31.2592 6.61393 32.0114 6.77051 31.8787 7.30736C31.7459 7.84422 33.6263 10.2824 32.7636 10.5508C31.9008 10.8193 29.9761 11.468 29.7549 11.043C29.5337 10.618 29.4895 10.2601 29.4895 10.2601Z" fill="#2F2E41"/>
<path d="M22.6034 22.326C22.2845 22.0582 22.3634 21.4304 22.7795 20.9237C22.9617 20.7019 23.1783 20.5402 23.391 20.4508L23.634 20.1624L26.7687 16.1219C26.7687 16.1219 28.4901 12.1142 29.0044 11.6784C29.5187 11.2427 30.1299 11.4621 30.1299 11.4621L30.6102 12.0528L27.6939 17.6529L24.6875 20.7639L24.2818 21.1988C24.2339 21.4267 24.1164 21.6717 23.9342 21.8934C23.5181 22.4001 22.9222 22.5937 22.6034 22.326Z" fill="#FFB6B6"/>
<path d="M30.7922 11.1515C30.7922 11.1515 30.0248 15.1782 29.1516 15.7718L27.4114 14.3998C27.4114 14.3998 27.2592 14.3932 27.5426 14.0695C27.826 13.7458 27.7534 13.0506 27.7534 13.0506C27.7534 13.0506 27.6259 13.2175 27.9034 12.9859C28.1809 12.7543 27.9226 11.1614 27.9226 11.1614L30.7922 11.1515Z" fill="#00A2B7"/>
<path d="M18.1181 27.7647C18.1548 27.7647 18.1878 27.739 18.1958 27.7012L18.2833 27.2904C18.4118 26.6862 18.9281 26.2449 19.5388 26.2173C20.1046 26.1917 20.6289 26.5306 20.8437 27.0601L21.0632 27.6011C21.0798 27.6422 21.1262 27.6618 21.167 27.645C21.2076 27.6281 21.227 27.5811 21.2103 27.5401L20.9909 26.9991C20.7505 26.4069 20.1648 26.0286 19.5316 26.0566C18.8488 26.0875 18.2715 26.5809 18.1277 27.2565L18.0403 27.6674C18.031 27.7108 18.0584 27.7536 18.1012 27.7629C18.1069 27.7642 18.1126 27.7647 18.1181 27.7647Z" fill="#FFB6B6"/>
<path d="M18.0242 29.0729C18.0265 29.0729 18.0289 29.0728 18.0313 29.0726L20.975 28.8071C21.0187 28.8032 21.0511 28.7641 21.0472 28.7199C21.0432 28.6756 21.005 28.6432 20.9609 28.6469L18.0172 28.9123C17.9734 28.9163 17.9411 28.9553 17.945 28.9996C17.9487 29.0414 17.9834 29.0729 18.0242 29.0729Z" fill="#FFB6B6"/>
</g>
<defs>
<clipPath id="clip0_80_173">
<rect width="36" height="38" fill="white" transform="matrix(-1 0 0 1 36 0)"/>
</clipPath>
</defs>
</svg>
