<svg version="1.1" id="Layer_1" xmlns="http://www.w3.org/2000/svg" xmlns:xlink="http://www.w3.org/1999/xlink" x="0px" y="0px"
	 width="100%" viewBox="0 0 512 512" enable-background="new 0 0 512 512" xml:space="preserve">
<path fill="#FFFFFF" opacity="1.000000" stroke="none" 
	d="
M1.000000,94.000000 
	C1.000000,63.033852 1.000000,32.067703 1.000000,1.000000 
	C103.354202,1.000000 205.708450,1.000000 308.413879,1.369788 
	C307.777893,1.836256 306.695251,1.701691 305.817780,2.064010 
	C290.610321,8.343365 283.255798,18.457052 282.044403,34.793259 
	C281.746674,38.808594 282.000000,42.864792 282.000000,47.281288 
	C259.417175,34.853069 225.443848,52.275673 230.900604,89.485909 
	C218.598389,85.363846 218.030869,85.321571 207.281891,86.992615 
	C192.402878,89.305717 180.059906,105.085861 180.030838,118.748993 
	C179.944672,159.248795 179.963455,199.748993 180.072754,240.248688 
	C180.081055,243.327484 179.229614,245.442535 177.017853,247.562943 
	C170.282913,254.019608 163.780212,260.718353 157.181412,267.317169 
	C148.371994,276.126556 139.557251,284.930573 130.365753,294.115662 
	C133.850845,297.514282 137.260681,300.445465 140.179611,303.803436 
	C142.787537,306.803589 144.503754,306.136475 146.972015,303.636108 
	C161.021072,289.404327 175.262192,275.361908 189.284668,261.104309 
	C191.577133,258.773407 193.859848,257.952057 197.055267,257.935730 
	C243.971680,257.695801 290.888855,257.452850 337.802277,256.906342 
	C348.068268,256.786804 356.149872,251.340836 361.905090,243.126099 
	C370.047577,231.503952 370.001007,218.986115 364.279541,205.759415 
	C378.704315,207.058258 392.541351,206.304123 402.407074,194.023788 
	C411.901825,182.205276 413.872314,169.179352 407.077332,154.873093 
	C426.392731,150.902557 436.761627,138.401596 436.609589,119.512024 
	C436.492676,104.985413 427.991425,94.044830 413.070190,87.886200 
	C416.400543,84.752457 419.571289,82.105072 422.349854,79.095596 
	C433.757233,66.740273 438.757263,52.278828 434.885132,35.672226 
	C432.172089,24.036732 426.619324,13.795173 415.461487,7.980733 
	C410.192566,5.235037 404.500397,3.301525 399.000000,1.000002 
	C436.952606,1.000000 474.905182,1.000000 513.000000,1.000000 
	C513.000000,79.687508 513.000000,158.375092 512.617859,237.399139 
	C511.877258,235.996353 511.562958,234.246658 511.153290,232.519577 
	C508.343903,220.675797 501.864105,211.201782 492.779633,203.216110 
	C477.986237,190.212097 460.700806,185.687973 441.746674,189.297577 
	C426.742401,192.154968 414.108398,199.768066 404.890900,212.533936 
	C393.990234,227.630936 390.408569,244.171844 394.699860,262.201752 
	C399.422638,282.044403 411.214783,296.085419 430.180206,304.054596 
	C441.611176,308.857819 453.587555,310.534760 465.399994,307.626312 
	C488.202698,302.011871 504.266479,288.374451 511.024231,265.134369 
	C511.623810,263.072449 512.338684,261.044006 513.000000,259.000000 
	C513.000000,282.354218 513.000000,305.708466 512.647217,329.433411 
	C510.688812,325.454987 507.164520,324.968872 503.147797,324.969757 
	C339.138214,325.005157 175.128632,325.018402 11.119149,324.904694 
	C6.547517,324.901520 3.401460,326.367065 1.000000,330.000000 
	C1.000000,300.312439 1.000000,270.624878 1.365129,240.580780 
	C8.084585,260.478668 23.092983,267.267365 43.000027,266.001953 
	C43.000027,274.304688 42.937069,281.955200 43.018600,289.604187 
	C43.092842,296.569092 46.658272,299.993103 53.639103,299.998047 
	C64.298347,300.005554 74.957626,300.009827 85.616852,299.996429 
	C92.358879,299.987976 94.989784,297.297577 94.997787,290.429291 
	C95.007225,282.339325 95.000000,274.249359 95.000000,266.000000 
	C98.427505,266.000000 101.244705,266.059692 104.058716,265.990295 
	C122.355850,265.539001 136.189697,252.318314 137.843018,234.760315 
	C139.692596,215.118225 126.006859,198.284790 105.544205,196.883301 
	C104.298843,196.797989 102.633751,195.277252 102.067215,194.018021 
	C96.599403,181.864548 88.151321,174.305847 74.396645,171.748932 
	C57.833332,168.669907 40.835739,180.729050 37.064022,193.652054 
	C36.264606,196.391068 34.880398,196.862289 32.254589,197.101425 
	C22.199675,198.017227 13.557814,201.930511 7.848269,210.663818 
	C5.281375,214.590103 3.265761,218.876831 1.000001,223.000000 
	C1.000000,186.312439 1.000000,149.624878 1.468241,112.468658 
	C7.505992,112.000000 13.075503,112.000000 18.661373,112.000000 
	C18.661373,105.745773 18.661373,99.924339 18.661373,94.000000 
	C12.548922,94.000000 6.774461,94.000000 1.000000,94.000000 
M155.516159,89.989136 
	C160.392471,85.284424 163.531342,79.649612 165.500580,73.127281 
	C170.195908,57.575813 163.964005,39.313496 150.411179,29.610262 
	C137.617416,20.450468 116.504822,20.565229 104.789268,29.683699 
	C101.829742,31.987167 99.472481,31.983665 96.541885,29.242128 
	C93.880341,26.752296 90.663979,24.479904 87.280373,23.202776 
	C72.836250,17.750891 59.446545,19.183548 46.557285,28.619715 
	C33.938904,37.857571 29.382086,55.869312 32.865585,69.526619 
	C35.641151,80.408409 41.903618,88.253212 51.304962,94.104347 
	C55.775558,96.886726 58.407417,100.461060 58.295891,106.769920 
	C58.123989,116.494019 62.318649,125.340675 69.072823,132.449982 
	C78.808487,142.697540 90.708878,147.323029 105.104492,146.093643 
	C126.626060,144.255707 143.003586,127.062218 143.819809,105.994499 
	C144.003296,101.258057 145.123184,98.035362 148.964401,95.474670 
	C151.123703,94.035194 152.998901,92.169533 155.516159,89.989136 
M319.931976,299.601868 
	C324.830933,292.466492 331.583771,290.836578 337.560730,292.283752 
	C344.368683,293.932068 350.466980,299.967285 350.202972,308.700378 
	C356.097076,308.700378 361.983612,308.700378 367.832794,308.700378 
	C369.759247,290.507416 353.475281,275.265106 338.484467,273.983765 
	C313.306488,271.831635 299.467865,289.876038 299.246490,308.807190 
	C305.024719,308.807190 310.802307,308.807190 316.546417,308.807190 
	C317.496124,305.865997 318.423584,302.993591 319.931976,299.601868 
M476.946411,55.414299 
	C471.999573,52.968033 466.906250,51.310036 461.204468,52.251347 
	C461.204468,58.272007 461.204468,64.038666 461.204468,69.796844 
	C471.797089,70.143936 477.320892,77.280884 477.958374,84.400841 
	C478.783386,93.615074 474.607300,100.900536 461.247131,103.520065 
	C461.247131,109.293793 461.247131,115.058975 461.247131,120.940376 
	C471.795776,121.109100 480.713501,117.356102 487.385498,109.857597 
	C493.649933,102.817169 496.681458,94.176163 496.070648,84.359703 
	C495.254639,71.245201 489.353638,61.732536 476.946411,55.414299 
M18.003942,130.708252 
	C18.003942,136.125702 18.003942,141.543152 18.003942,146.635651 
	C24.471073,146.635651 30.217066,146.635651 35.631729,146.635651 
	C35.631729,140.523697 35.631729,134.778488 35.631729,128.627808 
	C29.513218,129.016144 23.784889,129.379700 18.003942,130.708252 
M256.999756,297.322693 
	C256.999756,292.236145 256.999756,287.149597 256.999756,282.353638 
	C250.550964,282.353638 244.805954,282.353638 239.356842,282.353638 
	C239.356842,288.455505 239.356842,294.200836 239.356842,299.999756 
	C244.542938,299.999756 249.375656,300.090393 254.199356,299.922363 
	C255.149414,299.889221 256.064728,298.858521 256.999756,297.322693 
M195.537445,9.000000 
	C193.102432,9.000000 190.667419,9.000000 188.277054,9.000000 
	C188.277054,15.292397 188.277054,21.030525 188.277054,26.720581 
	C194.296082,26.720581 200.034027,26.720581 205.718201,26.720581 
	C205.718201,20.698130 205.718201,14.960339 205.718201,9.000000 
	C202.464462,9.000000 199.487457,9.000000 195.537445,9.000000 
z"/>
<path fill="#000000" opacity="1.000000" stroke="none" 
	d="
M398.533142,1.000002 
	C404.500397,3.301525 410.192566,5.235037 415.461487,7.980733 
	C426.619324,13.795173 432.172089,24.036732 434.885132,35.672226 
	C438.757263,52.278828 433.757233,66.740273 422.349854,79.095596 
	C419.571289,82.105072 416.400543,84.752457 413.070190,87.886200 
	C427.991425,94.044830 436.492676,104.985413 436.609589,119.512024 
	C436.761627,138.401596 426.392731,150.902557 407.077332,154.873093 
	C413.872314,169.179352 411.901825,182.205276 402.407074,194.023788 
	C392.541351,206.304123 378.704315,207.058258 364.279541,205.759415 
	C370.001007,218.986115 370.047577,231.503952 361.905090,243.126099 
	C356.149872,251.340836 348.068268,256.786804 337.802277,256.906342 
	C290.888855,257.452850 243.971680,257.695801 197.055267,257.935730 
	C193.859848,257.952057 191.577133,258.773407 189.284668,261.104309 
	C175.262192,275.361908 161.021072,289.404327 146.972015,303.636108 
	C144.503754,306.136475 142.787537,306.803589 140.179611,303.803436 
	C137.260681,300.445465 133.850845,297.514282 130.365753,294.115662 
	C139.557251,284.930573 148.371994,276.126556 157.181412,267.317169 
	C163.780212,260.718353 170.282913,254.019608 177.017853,247.562943 
	C179.229614,245.442535 180.081055,243.327484 180.072754,240.248688 
	C179.963455,199.748993 179.944672,159.248795 180.030838,118.748993 
	C180.059906,105.085861 192.402878,89.305717 207.281891,86.992615 
	C218.030869,85.321571 218.598389,85.363846 230.900604,89.485909 
	C225.443848,52.275673 259.417175,34.853069 282.000000,47.281288 
	C282.000000,42.864792 281.746674,38.808594 282.044403,34.793259 
	C283.255798,18.457052 290.610321,8.343365 305.817780,2.064010 
	C306.695251,1.701691 307.777893,1.836256 308.882507,1.369788 
	C313.689240,1.000000 318.378510,1.000000 323.648193,1.367094 
	C336.200409,4.483681 343.827118,12.463025 349.191315,22.931690 
	C353.714966,18.781313 357.890472,14.793255 362.236755,11.000878 
	C368.220856,5.779389 375.473083,3.077799 383.000000,1.000000 
	C388.022095,1.000000 393.044189,1.000000 398.533142,1.000002 
M389.055573,181.414551 
	C393.566406,176.585556 394.153076,170.948929 391.609863,165.196625 
	C388.874817,159.010391 383.626526,155.821884 376.968933,155.012573 
	C371.042053,154.292053 366.829193,150.441406 367.041138,145.815018 
	C367.264618,140.936874 372.062286,137.027237 377.942383,137.007202 
	C386.275085,136.978806 394.609070,137.085220 402.940338,136.972244 
	C409.288635,136.886169 416.249420,131.213760 417.980072,124.988678 
	C419.804321,118.426949 416.959442,112.129005 411.624969,107.829567 
	C406.607880,103.785965 401.092560,103.961342 395.376221,103.999451 
	C391.332550,104.026405 387.353149,103.759361 385.706726,99.167824 
	C384.095306,94.673973 384.650421,90.650032 388.309906,87.101334 
	C395.606293,80.025917 402.949310,72.975029 409.858704,65.529503 
	C421.073700,53.444252 420.746521,37.350544 409.757568,26.362551 
	C399.526520,16.132395 383.046112,15.970048 371.346161,27.214312 
	C363.778259,34.487427 356.491028,42.052036 349.049866,49.457741 
	C343.104309,55.374966 336.303772,53.822929 334.036285,45.783112 
	C333.125397,42.553406 333.162445,39.019680 333.034088,35.614292 
	C332.824890,30.065073 330.566772,25.312672 326.274078,22.211004 
	C321.378326,18.673607 315.482666,17.242537 309.707367,20.175892 
	C303.058899,23.552748 299.978638,29.358959 299.992767,36.829628 
	C300.018311,50.328690 299.934113,63.828346 300.039795,77.326630 
	C300.071869,81.422142 298.372253,84.350029 294.795868,85.938652 
	C288.314941,88.817482 282.284821,84.566315 281.974213,77.069115 
	C281.545715,66.726280 271.132965,60.210743 264.917694,61.175198 
	C254.381180,62.810184 248.761658,71.126114 248.938492,80.506790 
	C249.183441,93.501312 249.033920,106.504044 248.984451,119.502991 
	C248.962540,125.259270 244.873001,129.683304 239.687439,129.770264 
	C234.917236,129.850281 231.274902,125.754700 230.998566,120.014519 
	C230.752335,114.900024 228.280121,110.980713 224.416626,107.815475 
	C219.300674,103.624130 213.680328,102.550255 207.788956,105.794189 
	C201.904541,109.034302 197.999680,113.798340 197.999786,120.958458 
	C198.000259,154.456253 198.000000,187.954041 198.000000,221.451828 
	C198.000000,222.846725 198.000000,224.241608 198.000000,227.025925 
	C202.874573,221.957825 206.611801,217.737976 210.723175,213.921158 
	C213.250961,211.574478 214.118515,209.135239 214.082428,205.709839 
	C213.902237,188.595978 214.000000,171.479202 214.000000,154.217133 
	C220.166077,154.217133 225.904327,154.217133 232.046478,154.217133 
	C232.046478,166.803192 232.046478,179.179764 232.046478,192.786362 
	C243.125717,181.602829 253.430679,171.284958 263.581848,160.817932 
	C264.547241,159.822540 264.919708,157.898651 264.939545,156.397537 
	C265.060516,147.233063 265.000000,138.066208 265.000000,128.900146 
	C265.000000,123.307762 265.000000,117.715370 265.000000,112.327835 
	C271.394409,112.327835 277.136719,112.327835 283.298767,112.327835 
	C283.298767,122.002014 283.298767,131.352463 283.298767,141.324921 
	C293.357086,131.227646 302.787781,121.581581 312.453461,112.177002 
	C315.024139,109.675766 316.175873,107.236664 316.094055,103.582939 
	C315.837982,92.150085 316.000000,80.707870 316.000000,69.261955 
	C322.258606,69.261955 327.997498,69.261955 334.149170,69.261955 
	C334.149170,76.217049 334.149170,82.920502 334.149170,90.861351 
	C346.858307,78.065437 358.732758,66.109932 369.802917,54.964180 
	C374.268066,59.150742 378.602295,63.214535 383.792969,68.081329 
	C372.097412,79.702789 360.393677,91.332359 348.425781,103.224442 
	C355.001678,103.224442 361.409882,103.224442 367.697418,103.224442 
	C367.697418,109.341728 367.697418,115.080452 367.697418,121.000000 
	C355.914307,121.000000 344.432465,120.959038 332.951691,121.048882 
	C331.418518,121.060875 329.407684,121.236710 328.434357,122.179443 
	C317.864899,132.416748 307.458557,142.822433 296.107269,154.074829 
	C306.900909,154.074829 316.292664,154.074829 325.763214,154.074829 
	C325.763214,160.206863 325.763214,165.945465 325.763214,172.000000 
	C311.398407,172.000000 297.267181,172.085663 283.138458,171.934631 
	C279.947662,171.900528 277.637817,172.672379 275.341766,175.045792 
	C266.537628,184.146622 257.478821,193.000931 248.535522,201.967636 
	C247.711578,202.793732 247.032776,203.764557 245.746918,205.321762 
	C258.740570,205.321762 270.824036,205.321762 282.652466,205.321762 
	C282.652466,211.434845 282.652466,217.179611 282.652466,223.000000 
	C265.311890,223.000000 248.318588,222.977371 231.325577,223.037888 
	C229.767242,223.043427 227.738083,223.054962 226.733124,223.959106 
	C221.645111,228.536575 216.823471,233.410110 211.063416,238.999969 
	C253.727310,238.999969 294.866730,239.150452 336.003418,238.880188 
	C344.830536,238.822205 353.333588,228.069138 349.071564,217.238464 
	C346.125458,209.751740 340.020996,206.939743 332.600433,205.989929 
	C327.435974,205.328888 325.605865,202.646667 324.866302,197.654144 
	C324.061737,192.222733 329.753876,187.963760 335.294464,187.984634 
	C348.126770,188.032990 360.961639,187.857315 373.790833,188.063370 
	C379.730652,188.158798 384.737823,186.679245 389.055573,181.414551 
z"/>
<path fill="#000000" opacity="1.000000" stroke="none" 
	d="
M1.000000,330.468628 
	C3.401460,326.367065 6.547517,324.901520 11.119149,324.904694 
	C175.128632,325.018402 339.138214,325.005157 503.147797,324.969757 
	C507.164520,324.968872 510.688812,325.454987 512.647217,329.902069 
	C513.000000,337.354248 513.000000,344.708496 512.606689,352.677551 
	C510.580139,367.928284 507.060791,382.037048 502.183533,395.992035 
	C494.535217,417.875580 482.409058,436.952362 467.237671,454.058411 
	C451.524078,471.775879 432.658997,485.683990 411.246094,495.961060 
	C397.285217,502.661560 382.681946,507.411194 367.393707,510.038452 
	C362.568634,510.867676 357.796417,512.004150 353.000000,513.000000 
	C289.312439,513.000000 225.624878,513.000000 161.322479,512.606689 
	C146.071671,510.580200 131.962875,507.060822 118.007881,502.183533 
	C96.124374,494.535248 77.047577,482.409058 59.941525,467.237701 
	C42.224129,451.524109 28.316084,432.658936 18.038979,411.246063 
	C11.338474,397.285217 6.588837,382.681976 3.961547,367.393738 
	C3.132363,362.568665 1.995856,357.796417 1.000000,353.000000 
	C1.000000,345.645752 1.000000,338.291504 1.000000,330.468628 
M220.500000,343.000000 
	C153.392303,343.000000 86.284592,343.000000 18.972433,343.000000 
	C19.363457,348.081360 19.184359,352.756287 20.163822,357.174377 
	C23.148933,370.639313 26.218306,384.013672 31.774439,396.852936 
	C38.652447,412.746765 47.489742,427.290894 58.834297,440.141235 
	C76.204170,459.816528 97.177246,474.761688 121.761772,484.266846 
	C138.309433,490.664673 155.410751,494.927948 173.265823,494.961243 
	C229.591537,495.066254 285.920746,495.313202 342.240906,494.743591 
	C353.919739,494.625427 365.813843,492.165619 377.173981,489.148254 
	C399.877319,483.118042 420.014893,471.980316 438.043518,456.670197 
	C453.076935,443.903656 465.283966,429.033478 474.935486,412.023407 
	C483.717377,396.545990 489.492157,379.860931 492.795685,362.386993 
	C493.985382,356.094055 494.408875,349.656281 495.216553,343.000000 
	C403.439362,343.000000 312.469696,343.000000 220.500000,343.000000 
z"/>
<path fill="#000000" opacity="1.000000" stroke="none" 
	d="
M1.000001,223.467606 
	C3.265761,218.876831 5.281375,214.590103 7.848269,210.663818 
	C13.557814,201.930511 22.199675,198.017227 32.254589,197.101425 
	C34.880398,196.862289 36.264606,196.391068 37.064022,193.652054 
	C40.835739,180.729050 57.833332,168.669907 74.396645,171.748932 
	C88.151321,174.305847 96.599403,181.864548 102.067215,194.018021 
	C102.633751,195.277252 104.298843,196.797989 105.544205,196.883301 
	C126.006859,198.284790 139.692596,215.118225 137.843018,234.760315 
	C136.189697,252.318314 122.355850,265.539001 104.058716,265.990295 
	C101.244705,266.059692 98.427505,266.000000 95.000000,266.000000 
	C95.000000,274.249359 95.007225,282.339325 94.997787,290.429291 
	C94.989784,297.297577 92.358879,299.987976 85.616852,299.996429 
	C74.957626,300.009827 64.298347,300.005554 53.639103,299.998047 
	C46.658272,299.993103 43.092842,296.569092 43.018600,289.604187 
	C42.937069,281.955200 43.000027,274.304688 43.000027,266.001953 
	C23.092983,267.267365 8.084585,260.478668 1.365129,240.112122 
	C1.000000,234.645065 1.000000,229.290146 1.000001,223.467606 
M79.955544,193.431610 
	C67.603615,183.423569 53.347614,193.328705 52.881893,205.346161 
	C52.639400,211.603561 48.238724,214.956467 41.929176,214.997772 
	C39.766537,215.011932 37.603703,214.993530 35.440998,215.001144 
	C26.360779,215.033066 19.293926,221.880219 18.963923,230.587418 
	C18.520372,242.290558 26.681818,247.664459 34.728378,247.831070 
	C57.843079,248.309647 80.974396,248.065063 104.098526,247.959396 
	C110.855423,247.928513 117.695503,241.898605 119.728371,234.733200 
	C121.231049,229.436615 117.902252,222.160263 112.934166,218.306763 
	C108.047470,214.516464 102.554955,215.034302 97.039856,214.997391 
	C89.698380,214.948227 87.287453,212.246979 85.813026,205.061035 
	C85.014183,201.167664 82.316116,197.663986 79.955544,193.431610 
M61.000000,273.518677 
	C61.000000,276.285553 61.000000,279.052460 61.000000,281.703918 
	C66.665848,281.703918 71.737396,281.703918 76.701752,281.703918 
	C76.701752,276.331451 76.701752,271.259369 76.701752,266.300659 
	C71.327370,266.300659 66.255531,266.300659 61.000000,266.300659 
	C61.000000,268.581055 61.000000,270.562103 61.000000,273.518677 
z"/>
<path fill="#FFFFFF" opacity="1.000000" stroke="none" 
	d="
M353.468658,513.000000 
	C357.796417,512.004150 362.568634,510.867676 367.393707,510.038452 
	C382.681946,507.411194 397.285217,502.661560 411.246094,495.961060 
	C432.658997,485.683990 451.524078,471.775879 467.237671,454.058411 
	C482.409058,436.952362 494.535217,417.875580 502.183533,395.992035 
	C507.060791,382.037048 510.580139,367.928284 512.606689,353.146179 
	C513.000000,406.260345 513.000000,459.520660 513.000000,513.000000 
	C459.979309,513.000000 406.958313,513.000000 353.468658,513.000000 
z"/>
<path fill="#FFFFFF" opacity="1.000000" stroke="none" 
	d="
M1.000000,353.468658 
	C1.995856,357.796417 3.132363,362.568665 3.961547,367.393738 
	C6.588837,382.681976 11.338474,397.285217 18.038979,411.246063 
	C28.316084,432.658936 42.224129,451.524109 59.941525,467.237701 
	C77.047577,482.409058 96.124374,494.535248 118.007881,502.183533 
	C131.962875,507.060822 146.071671,510.580200 160.853821,512.606689 
	C107.739670,513.000000 54.479336,513.000000 1.000000,513.000000 
	C1.000000,459.979309 1.000000,406.958313 1.000000,353.468658 
z"/>
<path fill="#000000" opacity="1.000000" stroke="none" 
	d="
M513.000000,258.531464 
	C512.338684,261.044006 511.623810,263.072449 511.024231,265.134369 
	C504.266479,288.374451 488.202698,302.011871 465.399994,307.626312 
	C453.587555,310.534760 441.611176,308.857819 430.180206,304.054596 
	C411.214783,296.085419 399.422638,282.044403 394.699860,262.201752 
	C390.408569,244.171844 393.990234,227.630936 404.890900,212.533936 
	C414.108398,199.768066 426.742401,192.154968 441.746674,189.297577 
	C460.700806,185.687973 477.986237,190.212097 492.779633,203.216110 
	C501.864105,211.201782 508.343903,220.675797 511.153290,232.519577 
	C511.562958,234.246658 511.877258,235.996353 512.617859,237.867798 
	C513.000000,244.687637 513.000000,251.375290 513.000000,258.531464 
M436.731140,286.974213 
	C442.325104,288.313568 447.992004,291.012360 453.498260,290.716980 
	C466.014221,290.045593 477.052643,285.404663 485.404358,275.201874 
	C499.937256,257.447754 498.168945,234.155075 482.935974,218.823013 
	C471.032532,206.842102 455.827362,202.988022 439.418732,209.082932 
	C420.592224,216.075928 411.288574,230.300552 411.301605,248.612991 
	C411.313873,265.841583 420.027679,278.982758 436.731140,286.974213 
z"/>
<path fill="#FFFFFF" opacity="1.000000" stroke="none" 
	d="
M382.531342,1.000000 
	C375.473083,3.077799 368.220856,5.779389 362.236755,11.000878 
	C357.890472,14.793255 353.714966,18.781313 349.191315,22.931690 
	C343.827118,12.463025 336.200409,4.483681 324.114319,1.367094 
	C343.354218,1.000000 362.708466,1.000000 382.531342,1.000000 
z"/>
<path fill="#000000" opacity="1.000000" stroke="none" 
	d="
M1.000000,94.467941 
	C6.774461,94.000000 12.548922,94.000000 18.661373,94.000000 
	C18.661373,99.924339 18.661373,105.745773 18.661373,112.000000 
	C13.075503,112.000000 7.505992,112.000000 1.468241,112.000000 
	C1.000000,106.311958 1.000000,100.623917 1.000000,94.467941 
z"/>
<path fill="#000000" opacity="1.000000" stroke="none" 
	d="
M155.259125,90.242508 
	C152.998901,92.169533 151.123703,94.035194 148.964401,95.474670 
	C145.123184,98.035362 144.003296,101.258057 143.819809,105.994499 
	C143.003586,127.062218 126.626060,144.255707 105.104492,146.093643 
	C90.708878,147.323029 78.808487,142.697540 69.072823,132.449982 
	C62.318649,125.340675 58.123989,116.494019 58.295891,106.769920 
	C58.407417,100.461060 55.775558,96.886726 51.304962,94.104347 
	C41.903618,88.253212 35.641151,80.408409 32.865585,69.526619 
	C29.382086,55.869312 33.938904,37.857571 46.557285,28.619715 
	C59.446545,19.183548 72.836250,17.750891 87.280373,23.202776 
	C90.663979,24.479904 93.880341,26.752296 96.541885,29.242128 
	C99.472481,31.983665 101.829742,31.987167 104.789268,29.683699 
	C116.504822,20.565229 137.617416,20.450468 150.411179,29.610262 
	C163.964005,39.313496 170.195908,57.575813 165.500580,73.127281 
	C163.531342,79.649612 160.392471,85.284424 155.259125,90.242508 
M122.220749,41.253857 
	C117.989563,43.820469 113.655876,46.234890 109.556007,48.996471 
	C105.450813,51.761631 101.338295,54.690655 96.363472,51.675018 
	C92.234123,49.171894 88.733810,45.605511 84.545517,43.232613 
	C80.600479,40.997528 76.237854,38.741581 71.850708,38.208492 
	C63.668037,37.214195 55.134426,43.153435 51.709846,50.762733 
	C48.343479,58.242687 49.274750,68.808853 56.065884,74.529884 
	C60.298199,78.095291 64.510406,81.713913 68.995903,84.941391 
	C73.717072,88.338448 76.415955,92.371056 76.097046,98.458809 
	C75.903137,102.160645 76.255379,106.004860 77.072227,109.624924 
	C79.716362,121.343056 90.649521,129.899796 105.193451,127.921074 
	C116.350822,126.403091 125.725525,116.031906 126.004227,104.542168 
	C126.096466,100.739250 124.953072,96.178513 126.648796,93.307480 
	C129.412735,88.627884 133.546326,84.363220 137.987732,81.146431 
	C148.893234,73.247849 152.221497,61.155170 145.951859,51.052895 
	C140.725586,42.631771 132.592438,40.032639 122.220749,41.253857 
z"/>
<path fill="#000000" opacity="1.000000" stroke="none" 
	d="
M319.641510,299.861511 
	C318.423584,302.993591 317.496124,305.865997 316.546417,308.807190 
	C310.802307,308.807190 305.024719,308.807190 299.246490,308.807190 
	C299.467865,289.876038 313.306488,271.831635 338.484467,273.983765 
	C353.475281,275.265106 369.759247,290.507416 367.832794,308.700378 
	C361.983612,308.700378 356.097076,308.700378 350.202972,308.700378 
	C350.466980,299.967285 344.368683,293.932068 337.560730,292.283752 
	C331.583771,290.836578 324.830933,292.466492 319.641510,299.861511 
z"/>
<path fill="#000000" opacity="1.000000" stroke="none" 
	d="
M477.233063,55.683437 
	C489.353638,61.732536 495.254639,71.245201 496.070648,84.359703 
	C496.681458,94.176163 493.649933,102.817169 487.385498,109.857597 
	C480.713501,117.356102 471.795776,121.109100 461.247131,120.940376 
	C461.247131,115.058975 461.247131,109.293793 461.247131,103.520065 
	C474.607300,100.900536 478.783386,93.615074 477.958374,84.400841 
	C477.320892,77.280884 471.797089,70.143936 461.204468,69.796844 
	C461.204468,64.038666 461.204468,58.272007 461.204468,52.251347 
	C466.906250,51.310036 471.999573,52.968033 477.233063,55.683437 
z"/>
<path fill="#000000" opacity="1.000000" stroke="none" 
	d="
M18.030251,130.225769 
	C23.784889,129.379700 29.513218,129.016144 35.631729,128.627808 
	C35.631729,134.778488 35.631729,140.523697 35.631729,146.635651 
	C30.217066,146.635651 24.471073,146.635651 18.003942,146.635651 
	C18.003942,141.543152 18.003942,136.125702 18.030251,130.225769 
z"/>
<path fill="#000000" opacity="1.000000" stroke="none" 
	d="
M256.997925,297.805298 
	C256.064728,298.858521 255.149414,299.889221 254.199356,299.922363 
	C249.375656,300.090393 244.542938,299.999756 239.356842,299.999756 
	C239.356842,294.200836 239.356842,288.455505 239.356842,282.353638 
	C244.805954,282.353638 250.550964,282.353638 256.999756,282.353638 
	C256.999756,287.149597 256.999756,292.236145 256.997925,297.805298 
z"/>
<path fill="#000000" opacity="1.000000" stroke="none" 
	d="
M196.023941,9.000000 
	C199.487457,9.000000 202.464462,9.000000 205.718201,9.000000 
	C205.718201,14.960339 205.718201,20.698130 205.718201,26.720581 
	C200.034027,26.720581 194.296082,26.720581 188.277054,26.720581 
	C188.277054,21.030525 188.277054,15.292397 188.277054,9.000000 
	C190.667419,9.000000 193.102432,9.000000 196.023941,9.000000 
z"/>
<path fill="#FFFFFF" opacity="1.000000" stroke="none" 
	d="
M388.804596,181.689865 
	C384.737823,186.679245 379.730652,188.158798 373.790833,188.063370 
	C360.961639,187.857315 348.126770,188.032990 335.294464,187.984634 
	C329.753876,187.963760 324.061737,192.222733 324.866302,197.654144 
	C325.605865,202.646667 327.435974,205.328888 332.600433,205.989929 
	C340.020996,206.939743 346.125458,209.751740 349.071564,217.238464 
	C353.333588,228.069138 344.830536,238.822205 336.003418,238.880188 
	C294.866730,239.150452 253.727310,238.999969 211.063416,238.999969 
	C216.823471,233.410110 221.645111,228.536575 226.733124,223.959106 
	C227.738083,223.054962 229.767242,223.043427 231.325577,223.037888 
	C248.318588,222.977371 265.311890,223.000000 282.652466,223.000000 
	C282.652466,217.179611 282.652466,211.434845 282.652466,205.321762 
	C270.824036,205.321762 258.740570,205.321762 245.746918,205.321762 
	C247.032776,203.764557 247.711578,202.793732 248.535522,201.967636 
	C257.478821,193.000931 266.537628,184.146622 275.341766,175.045792 
	C277.637817,172.672379 279.947662,171.900528 283.138458,171.934631 
	C297.267181,172.085663 311.398407,172.000000 325.763214,172.000000 
	C325.763214,165.945465 325.763214,160.206863 325.763214,154.074829 
	C316.292664,154.074829 306.900909,154.074829 296.107269,154.074829 
	C307.458557,142.822433 317.864899,132.416748 328.434357,122.179443 
	C329.407684,121.236710 331.418518,121.060875 332.951691,121.048882 
	C344.432465,120.959038 355.914307,121.000000 367.697418,121.000000 
	C367.697418,115.080452 367.697418,109.341728 367.697418,103.224442 
	C361.409882,103.224442 355.001678,103.224442 348.425781,103.224442 
	C360.393677,91.332359 372.097412,79.702789 383.792969,68.081329 
	C378.602295,63.214535 374.268066,59.150742 369.802917,54.964180 
	C358.732758,66.109932 346.858307,78.065437 334.149170,90.861351 
	C334.149170,82.920502 334.149170,76.217049 334.149170,69.261955 
	C327.997498,69.261955 322.258606,69.261955 316.000000,69.261955 
	C316.000000,80.707870 315.837982,92.150085 316.094055,103.582939 
	C316.175873,107.236664 315.024139,109.675766 312.453461,112.177002 
	C302.787781,121.581581 293.357086,131.227646 283.298767,141.324921 
	C283.298767,131.352463 283.298767,122.002014 283.298767,112.327835 
	C277.136719,112.327835 271.394409,112.327835 265.000000,112.327835 
	C265.000000,117.715370 265.000000,123.307762 265.000000,128.900146 
	C265.000000,138.066208 265.060516,147.233063 264.939545,156.397537 
	C264.919708,157.898651 264.547241,159.822540 263.581848,160.817932 
	C253.430679,171.284958 243.125717,181.602829 232.046478,192.786362 
	C232.046478,179.179764 232.046478,166.803192 232.046478,154.217133 
	C225.904327,154.217133 220.166077,154.217133 214.000000,154.217133 
	C214.000000,171.479202 213.902237,188.595978 214.082428,205.709839 
	C214.118515,209.135239 213.250961,211.574478 210.723175,213.921158 
	C206.611801,217.737976 202.874573,221.957825 198.000000,227.025925 
	C198.000000,224.241608 198.000000,222.846725 198.000000,221.451828 
	C198.000000,187.954041 198.000259,154.456253 197.999786,120.958458 
	C197.999680,113.798340 201.904541,109.034302 207.788956,105.794189 
	C213.680328,102.550255 219.300674,103.624130 224.416626,107.815475 
	C228.280121,110.980713 230.752335,114.900024 230.998566,120.014519 
	C231.274902,125.754700 234.917236,129.850281 239.687439,129.770264 
	C244.873001,129.683304 248.962540,125.259270 248.984451,119.502991 
	C249.033920,106.504044 249.183441,93.501312 248.938492,80.506790 
	C248.761658,71.126114 254.381180,62.810184 264.917694,61.175198 
	C271.132965,60.210743 281.545715,66.726280 281.974213,77.069115 
	C282.284821,84.566315 288.314941,88.817482 294.795868,85.938652 
	C298.372253,84.350029 300.071869,81.422142 300.039795,77.326630 
	C299.934113,63.828346 300.018311,50.328690 299.992767,36.829628 
	C299.978638,29.358959 303.058899,23.552748 309.707367,20.175892 
	C315.482666,17.242537 321.378326,18.673607 326.274078,22.211004 
	C330.566772,25.312672 332.824890,30.065073 333.034088,35.614292 
	C333.162445,39.019680 333.125397,42.553406 334.036285,45.783112 
	C336.303772,53.822929 343.104309,55.374966 349.049866,49.457741 
	C356.491028,42.052036 363.778259,34.487427 371.346161,27.214312 
	C383.046112,15.970048 399.526520,16.132395 409.757568,26.362551 
	C420.746521,37.350544 421.073700,53.444252 409.858704,65.529503 
	C402.949310,72.975029 395.606293,80.025917 388.309906,87.101334 
	C384.650421,90.650032 384.095306,94.673973 385.706726,99.167824 
	C387.353149,103.759361 391.332550,104.026405 395.376221,103.999451 
	C401.092560,103.961342 406.607880,103.785965 411.624969,107.829567 
	C416.959442,112.129005 419.804321,118.426949 417.980072,124.988678 
	C416.249420,131.213760 409.288635,136.886169 402.940338,136.972244 
	C394.609070,137.085220 386.275085,136.978806 377.942383,137.007202 
	C372.062286,137.027237 367.264618,140.936874 367.041138,145.815018 
	C366.829193,150.441406 371.042053,154.292053 376.968933,155.012573 
	C383.626526,155.821884 388.874817,159.010391 391.609863,165.196625 
	C394.153076,170.948929 393.566406,176.585556 388.804596,181.689865 
z"/>
<path fill="#FFFFFF" opacity="1.000000" stroke="none" 
	d="
M221.000000,343.000000 
	C312.469696,343.000000 403.439362,343.000000 495.216553,343.000000 
	C494.408875,349.656281 493.985382,356.094055 492.795685,362.386993 
	C489.492157,379.860931 483.717377,396.545990 474.935486,412.023407 
	C465.283966,429.033478 453.076935,443.903656 438.043518,456.670197 
	C420.014893,471.980316 399.877319,483.118042 377.173981,489.148254 
	C365.813843,492.165619 353.919739,494.625427 342.240906,494.743591 
	C285.920746,495.313202 229.591537,495.066254 173.265823,494.961243 
	C155.410751,494.927948 138.309433,490.664673 121.761772,484.266846 
	C97.177246,474.761688 76.204170,459.816528 58.834297,440.141235 
	C47.489742,427.290894 38.652447,412.746765 31.774439,396.852936 
	C26.218306,384.013672 23.148933,370.639313 20.163822,357.174377 
	C19.184359,352.756287 19.363457,348.081360 18.972433,343.000000 
	C86.284592,343.000000 153.392303,343.000000 221.000000,343.000000 
z"/>
<path fill="#FFFFFF" opacity="1.000000" stroke="none" 
	d="
M80.215164,193.708069 
	C82.316116,197.663986 85.014183,201.167664 85.813026,205.061035 
	C87.287453,212.246979 89.698380,214.948227 97.039856,214.997391 
	C102.554955,215.034302 108.047470,214.516464 112.934166,218.306763 
	C117.902252,222.160263 121.231049,229.436615 119.728371,234.733200 
	C117.695503,241.898605 110.855423,247.928513 104.098526,247.959396 
	C80.974396,248.065063 57.843079,248.309647 34.728378,247.831070 
	C26.681818,247.664459 18.520372,242.290558 18.963923,230.587418 
	C19.293926,221.880219 26.360779,215.033066 35.440998,215.001144 
	C37.603703,214.993530 39.766537,215.011932 41.929176,214.997772 
	C48.238724,214.956467 52.639400,211.603561 52.881893,205.346161 
	C53.347614,193.328705 67.603615,183.423569 80.215164,193.708069 
z"/>
<path fill="#FFFFFF" opacity="1.000000" stroke="none" 
	d="
M61.000000,273.030914 
	C61.000000,270.562103 61.000000,268.581055 61.000000,266.300659 
	C66.255531,266.300659 71.327370,266.300659 76.701752,266.300659 
	C76.701752,271.259369 76.701752,276.331451 76.701752,281.703918 
	C71.737396,281.703918 66.665848,281.703918 61.000000,281.703918 
	C61.000000,279.052460 61.000000,276.285553 61.000000,273.030914 
z"/>
<path fill="#FFFFFF" opacity="1.000000" stroke="none" 
	d="
M436.392273,286.771515 
	C420.027679,278.982758 411.313873,265.841583 411.301605,248.612991 
	C411.288574,230.300552 420.592224,216.075928 439.418732,209.082932 
	C455.827362,202.988022 471.032532,206.842102 482.935974,218.823013 
	C498.168945,234.155075 499.937256,257.447754 485.404358,275.201874 
	C477.052643,285.404663 466.014221,290.045593 453.498260,290.716980 
	C447.992004,291.012360 442.325104,288.313568 436.392273,286.771515 
M466.377258,271.082825 
	C478.559296,263.724823 481.813843,249.851715 477.376038,238.934341 
	C471.883728,225.422760 459.867615,220.141724 446.822479,223.247452 
	C436.326569,225.746262 429.774200,232.819305 427.900360,243.970291 
	C426.262573,253.716507 430.072174,263.893280 437.314453,269.093994 
	C446.445984,275.651367 455.907349,275.731995 466.377258,271.082825 
z"/>
<path fill="#FFFFFF" opacity="1.000000" stroke="none" 
	d="
M122.641159,41.135357 
	C132.592438,40.032639 140.725586,42.631771 145.951859,51.052895 
	C152.221497,61.155170 148.893234,73.247849 137.987732,81.146431 
	C133.546326,84.363220 129.412735,88.627884 126.648796,93.307480 
	C124.953072,96.178513 126.096466,100.739250 126.004227,104.542168 
	C125.725525,116.031906 116.350822,126.403091 105.193451,127.921074 
	C90.649521,129.899796 79.716362,121.343056 77.072227,109.624924 
	C76.255379,106.004860 75.903137,102.160645 76.097046,98.458809 
	C76.415955,92.371056 73.717072,88.338448 68.995903,84.941391 
	C64.510406,81.713913 60.298199,78.095291 56.065884,74.529884 
	C49.274750,68.808853 48.343479,58.242687 51.709846,50.762733 
	C55.134426,43.153435 63.668037,37.214195 71.850708,38.208492 
	C76.237854,38.741581 80.600479,40.997528 84.545517,43.232613 
	C88.733810,45.605511 92.234123,49.171894 96.363472,51.675018 
	C101.338295,54.690655 105.450813,51.761631 109.556007,48.996471 
	C113.655876,46.234890 117.989563,43.820469 122.641159,41.135357 
z"/>
<path fill="#000000" opacity="1.000000" stroke="none" 
	d="
M466.121765,271.372681 
	C455.907349,275.731995 446.445984,275.651367 437.314453,269.093994 
	C430.072174,263.893280 426.262573,253.716507 427.900360,243.970291 
	C429.774200,232.819305 436.326569,225.746262 446.822479,223.247452 
	C459.867615,220.141724 471.883728,225.422760 477.376038,238.934341 
	C481.813843,249.851715 478.559296,263.724823 466.121765,271.372681 
M446.034332,245.659668 
	C444.569733,249.529907 446.346832,253.973267 449.960663,255.476913 
	C453.846985,257.093933 459.270111,255.127090 460.833710,251.533600 
	C462.105896,248.609711 459.887177,242.948502 456.833405,241.326569 
	C453.648773,239.635117 448.688171,241.399933 446.034332,245.659668 
z"/>
<path fill="#FFFFFF" opacity="1.000000" stroke="none" 
	d="
M446.260254,245.333710 
	C448.688171,241.399933 453.648773,239.635117 456.833405,241.326569 
	C459.887177,242.948502 462.105896,248.609711 460.833710,251.533600 
	C459.270111,255.127090 453.846985,257.093933 449.960663,255.476913 
	C446.346832,253.973267 444.569733,249.529907 446.260254,245.333710 
z"/>
</svg>