<svg width="55" height="39" viewBox="0 0 55 39" fill="none" xmlns="http://www.w3.org/2000/svg">
<g clip-path="url(#clip0_80_557)">
<path d="M55 21.4724C55 21.5103 54.9687 21.541 54.93 21.541H0V21.4038H54.93C54.9687 21.4038 55 21.4345 55 21.4724Z" fill="#E6E6E6"/>
<path d="M18.0613 4.81266C19.2078 4.81266 20.1372 3.90181 20.1372 2.77822C20.1372 1.65463 19.2078 0.743774 18.0613 0.743774C16.9149 0.743774 15.9855 1.65463 15.9855 2.77822C15.9855 3.90181 16.9149 4.81266 18.0613 4.81266Z" fill="#FFB6B6"/>
<path d="M19.1613 5.24194L16.429 6.00705L16.0386 6.86779L15.1604 10.9802V17.4836C15.1604 17.4836 14.0869 19.779 14.6724 21.7874C15.2983 23.9341 17.5024 21.4003 19.1613 21.6895C20.8203 21.9786 23.4551 22.2655 23.4551 22.2655L21.8937 15.284L21.5034 6.77216L19.1613 5.24194Z" fill="#E6E6E6"/>
<path d="M18.6457 3.44448L18.2237 3.23767C18.2237 3.23767 18.1181 2.30702 17.9071 2.10021C17.6961 1.8934 17.6961 1.78999 17.6961 1.78999L18.0126 1.37637C18.0126 1.37637 16.43 2.20361 16.1134 1.68658C15.7969 1.16956 16.219 0.962746 16.219 0.962746L15.6914 0.549124C15.6914 0.549124 16.3245 0.962746 16.43 0.652529C16.5355 0.342312 17.1686 0.131837 17.1686 0.131837C17.1686 0.131837 18.551 0.43839 18.4401 0.131837C18.3292 -0.174715 18.7512 0.135502 18.8567 0.238907C18.9622 0.342312 19.9118 1.37637 20.0173 1.27296C20.1228 1.16956 20.6504 1.47977 20.5449 1.58318C20.4394 1.68658 20.4394 1.78999 20.5449 1.8934C20.6504 1.9968 21.2835 3.13426 20.7559 3.54788C20.2284 3.96151 19.4898 4.47853 19.5953 4.89216C19.7008 5.30578 19.5953 3.54788 18.6457 3.44448Z" fill="#2F2E41"/>
<path d="M8.41267 8.56662C7.87987 8.11648 7.68498 7.48219 7.97733 7.14993C8.26968 6.81766 8.93848 6.91327 9.47141 7.36363C9.68681 7.54067 9.85581 7.76569 9.96429 8.01987L12.1972 9.95503L11.2483 10.9626L9.14776 8.94791C8.87517 8.88017 8.62311 8.74942 8.41267 8.56662Z" fill="#FFB6B6"/>
<path d="M16.062 6.9007L17.5328 6.76965L18.8227 12.7987C19.0685 13.9475 18.3001 15.0691 17.1221 15.2811L16.062 15.4718L9.30518 9.64131L10.2923 8.0285L15.2752 11.0918L16.062 6.9007Z" fill="#E6E6E6"/>
<path d="M12.7783 33.7126C12.7783 33.7126 11.6117 35.836 11.6951 35.7543C11.7784 35.6726 13.195 36.1626 13.195 36.1626L14.0282 34.0393L12.7783 33.7126Z" fill="#FFB6B6"/>
<path d="M11.0565 18.8499C11.0565 18.8499 10.4593 21.1893 10.5195 21.0901C10.5798 20.9908 12.0758 21.1238 12.0758 21.1238L12.35 18.8648L11.0565 18.8499Z" fill="#FFB6B6"/>
<path d="M21.4445 18.4566C18.8081 18.8195 16.4269 18.5031 14.4866 17.0121C14.4866 17.0121 13.07 21.667 15.6532 22.157C18.2364 22.647 21.1112 21.8049 21.4445 20.9882C21.7778 20.1715 21.4445 18.4566 21.4445 18.4566Z" fill="#2F2E41"/>
<path d="M16.5281 19.9265L13.6533 26.567L12.3201 34.2436L14.07 34.6519L17.2 27.5878L21.4445 20.8248L16.5281 19.9265Z" fill="#2F2E41"/>
<path d="M16.1532 18.0328C16.1532 18.0328 15.4866 12.9696 14.2366 12.6429C13.6273 12.4837 13.0575 12.4991 12.6336 12.5567C12.2063 12.6148 11.8657 12.9348 11.791 13.3511L10.6552 19.6815H12.2614L12.7784 17.9665L14.1533 20.3195L16.1532 18.0328Z" fill="#2F2E41"/>
<path d="M12.0701 20.4828L10.4819 20.3195L10.2368 21.2178C10.2368 21.2178 7.65367 23.5044 8.98692 23.6678C10.3202 23.8311 11.5701 22.9328 11.5701 22.9328L13.4041 21.9017C13.4041 21.9017 12.695 20.049 12.1951 20.049C11.6951 20.049 12.0701 20.4828 12.0701 20.4828Z" fill="#2F2E41"/>
<path d="M12.9033 35.7952L11.3152 35.6318L11.0701 36.5302C11.0701 36.5302 8.48692 38.8168 9.82017 38.9801C11.1534 39.1435 12.4033 38.2452 12.4033 38.2452L14.2374 37.214C14.2374 37.214 14.1116 35.2797 13.6116 35.2797C13.1116 35.2797 12.9033 35.7952 12.9033 35.7952Z" fill="#2F2E41"/>
<path d="M20.9447 23.4322C20.7532 24.0759 20.2591 24.5008 19.8412 24.3813C19.4233 24.2618 19.2398 23.6432 19.4314 22.9994C19.5044 22.7411 19.6394 22.5038 19.8251 22.3072L20.6716 19.5901L21.9641 20.0066L20.9924 22.6409C21.0412 22.9046 21.0249 23.176 20.9447 23.4322Z" fill="#FFB6B6"/>
<path d="M21.8393 6.78395L21.1653 6.59766C20.5298 7.83688 20.2566 9.22428 20.3758 10.6063L20.7084 14.4626L19.6108 21.2407L21.7621 21.7861L23.4573 13.2799L21.8393 6.78395Z" fill="#E6E6E6"/>
<path d="M8.7184 17.3815C8.68889 17.293 8.46519 17.332 8.44371 17.2528C8.42231 17.1739 8.63696 17.1078 8.80159 16.8855C8.83128 16.8454 9.01836 16.5927 8.94661 16.4865C8.8106 16.2851 7.86433 16.7867 7.63719 16.5052C7.58734 16.4434 7.56683 16.3374 7.41833 16.14C7.35925 16.0615 7.32135 16.0236 7.27606 16.0247C7.21181 16.0263 7.18881 16.1051 7.08782 16.2478C6.93636 16.4618 6.88171 16.4349 6.78193 16.6103C6.70786 16.7405 6.69909 16.8236 6.64567 16.8285C6.57009 16.8355 6.53886 16.6734 6.4465 16.6671C6.35226 16.6607 6.25795 16.8208 6.2112 16.946C6.12347 17.1808 6.17779 17.3602 6.18984 17.5391C6.20293 17.7334 6.1722 18.018 5.95671 18.3832L3.92419 21.5569C4.3607 20.9099 5.59976 19.1456 6.09897 18.4985C6.24309 18.3117 6.39796 18.1241 6.63632 18.0888C6.86582 18.0548 7.14505 18.1661 7.53481 18.1596C7.58032 18.1588 7.707 18.1551 7.73781 18.0893C7.76329 18.0349 7.70004 17.9876 7.72305 17.9365C7.75391 17.8679 7.89277 17.8973 8.08201 17.8518C8.21545 17.8197 8.3061 17.7666 8.38406 17.721C8.40756 17.7072 8.75769 17.4993 8.7184 17.3815Z" fill="#F2F2F2"/>
<path d="M3.39488 18.1225C3.34204 18.1111 3.29701 18.23 3.25117 18.2175C3.20549 18.205 3.2343 18.0827 3.17047 17.9393C3.15896 17.9135 3.08642 17.7506 3.0125 17.7545C2.87239 17.7618 2.85058 18.3617 2.64407 18.3897C2.59875 18.3959 2.53971 18.3751 2.39802 18.3896C2.34165 18.3954 2.31174 18.4027 2.29923 18.4248C2.28149 18.4561 2.31431 18.4899 2.35664 18.5797C2.42012 18.7143 2.39089 18.7328 2.44992 18.8314C2.49374 18.9046 2.53286 18.9328 2.51991 18.9599C2.50158 18.9983 2.4114 18.9666 2.3816 19.0092C2.3512 19.0527 2.40419 19.1442 2.45336 19.2028C2.54563 19.3128 2.65118 19.3384 2.74422 19.3842C2.84534 19.434 2.97896 19.5309 3.09967 19.7399L4.1026 21.6333C3.90454 21.2366 3.37851 20.1316 3.19847 19.7047C3.14649 19.5815 3.09723 19.4529 3.14834 19.3281C3.19754 19.2079 3.33383 19.1057 3.44304 18.9163C3.4558 18.8942 3.4905 18.8322 3.46644 18.7984C3.44655 18.7704 3.40461 18.7872 3.38564 18.7614C3.36019 18.7268 3.415 18.6685 3.44678 18.5643C3.4692 18.4908 3.46877 18.4319 3.46841 18.3812C3.4683 18.366 3.46523 18.1376 3.39488 18.1225Z" fill="#F2F2F2"/>
<path d="M4.39551 18.5844L4.42703 18.2992L4.44637 18.2812C4.53582 18.1984 4.59178 18.1106 4.61278 18.0203C4.61612 18.0059 4.6187 17.9914 4.62135 17.9766C4.63182 17.9179 4.64482 17.845 4.70235 17.7693C4.73455 17.7271 4.81973 17.6317 4.90758 17.665C4.93129 17.6737 4.94729 17.6888 4.95841 17.7048C4.9612 17.702 4.96406 17.6992 4.96712 17.6962C5.00506 17.6601 5.03161 17.6469 5.05718 17.6341C5.07683 17.6243 5.09712 17.6142 5.13145 17.5873C5.14652 17.5755 5.15858 17.5649 5.16874 17.556C5.19957 17.529 5.23899 17.4974 5.293 17.5099C5.35025 17.5252 5.36988 17.5788 5.3829 17.6142C5.40616 17.6774 5.41332 17.7209 5.41806 17.7497C5.41977 17.7602 5.42175 17.7721 5.42324 17.7759C5.43577 17.8069 5.59307 17.8149 5.65226 17.8182C5.7853 17.8253 5.90042 17.8314 5.92811 17.9207C5.94797 17.9846 5.90657 18.0542 5.8015 18.1333C5.76878 18.1578 5.73606 18.1748 5.70755 18.1875C5.72508 18.2037 5.73905 18.2258 5.73991 18.2559C5.74183 18.3271 5.66729 18.3818 5.51835 18.4187C5.48134 18.4279 5.43155 18.4402 5.36641 18.4371C5.33573 18.4356 5.30885 18.431 5.28594 18.4267C5.28252 18.4395 5.27626 18.4528 5.26497 18.4654C5.23182 18.5026 5.17828 18.512 5.10562 18.4911C5.02539 18.4692 4.96201 18.4394 4.90608 18.4132C4.85722 18.3904 4.8151 18.3709 4.77975 18.3655C4.71401 18.3565 4.65271 18.3963 4.57934 18.4493L4.39551 18.5844Z" fill="#F2F2F2"/>
<path d="M4.92013 16.9597L4.63059 17.0022L4.608 16.9884C4.50353 16.9246 4.4027 16.8938 4.30821 16.8968C4.29318 16.8973 4.27819 16.8985 4.26291 16.8998C4.20237 16.9047 4.12711 16.9109 4.03777 16.8756C3.98796 16.8558 3.87224 16.7992 3.88283 16.7075C3.88542 16.6828 3.89623 16.6638 3.90917 16.6492C3.90572 16.6473 3.90227 16.6452 3.89854 16.6431C3.85324 16.6163 3.83344 16.5945 3.81437 16.5735C3.7997 16.5573 3.7846 16.5407 3.74932 16.5149C3.73385 16.5037 3.72031 16.4949 3.70893 16.4875C3.67448 16.4652 3.63331 16.4358 3.63196 16.3814C3.63257 16.3233 3.68042 16.2911 3.71209 16.2698C3.76857 16.2317 3.80964 16.2139 3.83689 16.2021C3.84685 16.1978 3.85806 16.1929 3.86148 16.1905C3.88885 16.1708 3.85685 16.0196 3.84514 15.9626C3.81838 15.8347 3.79522 15.724 3.87632 15.6752C3.93432 15.6401 4.01357 15.6617 4.11822 15.7413C4.15078 15.766 4.17583 15.7928 4.19557 15.8166C4.20716 15.7958 4.22542 15.777 4.25491 15.7685C4.32473 15.7486 4.39758 15.8055 4.47173 15.9373C4.49026 15.97 4.51498 16.0141 4.52845 16.0767C4.53476 16.1061 4.53703 16.1328 4.5386 16.1556C4.55209 16.1556 4.56681 16.1581 4.58213 16.1656C4.62725 16.1876 4.65016 16.236 4.6479 16.3102C4.64663 16.3918 4.6333 16.4595 4.62163 16.5191C4.61151 16.5712 4.60294 16.6161 4.60665 16.651C4.61443 16.7156 4.66925 16.7636 4.74011 16.8197L4.92013 16.9597Z" fill="#F2F2F2"/>
<path d="M4.95911 16.1076L4.99063 15.8224L5.00997 15.8044C5.09942 15.7216 5.15538 15.6338 5.17638 15.5434C5.17972 15.5291 5.1823 15.5146 5.18495 15.4998C5.19542 15.4411 5.20841 15.3682 5.26595 15.2925C5.29815 15.2503 5.38333 15.1549 5.47118 15.1882C5.49489 15.1969 5.51089 15.212 5.52201 15.228C5.5248 15.2252 5.52766 15.2224 5.53071 15.2194C5.56866 15.1833 5.59521 15.1701 5.62078 15.1573C5.64043 15.1475 5.66072 15.1374 5.69505 15.1105C5.71012 15.0987 5.72218 15.0881 5.73234 15.0791C5.76316 15.0522 5.80259 15.0206 5.8566 15.0331C5.91385 15.0484 5.93348 15.102 5.9465 15.1374C5.96976 15.2006 5.97692 15.244 5.98166 15.2729C5.98337 15.2834 5.98535 15.2953 5.98684 15.2991C5.99937 15.3301 6.15667 15.3381 6.21586 15.3414C6.3489 15.3485 6.46402 15.3546 6.4917 15.4439C6.51157 15.5078 6.47017 15.5774 6.3651 15.6564C6.33237 15.681 6.29965 15.698 6.27115 15.7107C6.28868 15.7269 6.30265 15.749 6.30351 15.7791C6.30543 15.8503 6.23088 15.905 6.08195 15.9418C6.04494 15.9511 5.99515 15.9634 5.93001 15.9603C5.89933 15.9588 5.87245 15.9542 5.84954 15.9499C5.84612 15.9627 5.83986 15.976 5.82857 15.9886C5.79542 16.0258 5.74188 16.0352 5.66922 16.0143C5.58899 15.9924 5.52561 15.9626 5.46967 15.9364C5.42082 15.9136 5.3787 15.8941 5.34335 15.8887C5.27761 15.8797 5.2163 15.9195 5.14294 15.9724L4.95911 16.1076Z" fill="#F2F2F2"/>
<path d="M4.02036 21.573L3.96917 21.5235L3.89802 21.5161C3.89836 21.5095 3.89789 21.4942 3.89737 21.4703C3.89463 21.339 3.88613 20.9397 3.94288 20.326C3.9825 19.8977 4.04871 19.4629 4.13967 19.0335C4.23078 18.6034 4.32534 18.2834 4.40129 18.0262C4.4586 17.8322 4.51645 17.6482 4.57293 17.469C4.72364 16.9902 4.86595 16.5379 4.95407 16.0219C4.9738 15.9068 5.01476 15.667 4.93091 15.3841C4.88225 15.22 4.79895 15.0655 4.68323 14.9251L4.79523 14.8364C4.92293 14.9916 5.01505 15.1627 5.06908 15.3449C5.16205 15.6586 5.11743 15.9198 5.09599 16.0453C5.00629 16.5704 4.86257 17.027 4.71037 17.5105C4.65419 17.6891 4.59652 17.8722 4.53946 18.0654C4.46419 18.3202 4.37049 18.6375 4.28056 19.062C4.19063 19.4863 4.12527 19.9158 4.08608 20.3387C4.03009 20.9446 4.0385 21.338 4.04126 21.4673C4.04268 21.5363 4.04299 21.5508 4.02036 21.573Z" fill="#F2F2F2"/>
<path d="M4.37596 15.0874C4.3702 15.0862 4.36441 15.0848 4.3586 15.0831C4.24048 15.0506 4.14572 14.9563 4.0769 14.8027C4.04468 14.7305 4.03708 14.6545 4.02191 14.5029C4.01953 14.4796 4.00902 14.3613 4.02195 14.2046C4.03035 14.1022 4.04159 14.061 4.07002 14.0288C4.1016 13.9928 4.14414 13.9722 4.1891 13.9618C4.19032 13.9483 4.19484 13.935 4.20382 13.9224C4.24081 13.8703 4.30271 13.8917 4.33631 13.9029C4.35323 13.9088 4.37432 13.9164 4.39804 13.9203C4.43532 13.9266 4.45758 13.9202 4.49128 13.9107C4.52352 13.9015 4.56361 13.8901 4.61902 13.891C4.72836 13.8925 4.8093 13.9407 4.836 13.9565C4.97656 14.0393 5.0251 14.1714 5.08126 14.3243C5.09242 14.3549 5.12946 14.4657 5.13808 14.6084C5.14431 14.7113 5.13055 14.7534 5.11477 14.7836C5.08254 14.8455 5.03319 14.8742 4.9107 14.9346C4.78273 14.9979 4.71852 15.0296 4.66588 15.0459C4.54338 15.0835 4.46646 15.1072 4.37596 15.0874Z" fill="#F2F2F2"/>
<path d="M37.2255 3.14771C37.2255 3.14771 38.0201 3.60445 37.7595 4.05614C37.4989 4.50784 37.1356 5.12309 37.382 5.31686C37.6285 5.51063 38.0355 6.36496 38.0355 6.36496C38.0355 6.36496 39.7725 6.1272 39.6094 7.44957C39.4464 8.77195 38.6303 8.95223 39.3298 9.53398C40.0292 10.1157 38.6029 10.8115 38.6029 10.8115C38.6029 10.8115 37.6182 10.5108 37.3935 9.58597C37.1689 8.66118 37.5938 10.2931 37.4513 10.4101C37.3088 10.5271 36.7554 11.2984 36.3639 10.2729C35.9723 9.24748 36.3601 8.8499 35.8427 8.24469C35.3253 7.63948 34.9736 6.66058 34.989 6.48947C35.0044 6.31835 34.3972 4.7569 35.3318 4.14795C36.2664 3.53899 37.2255 3.14771 37.2255 3.14771Z" fill="#2F2E41"/>
<path d="M45.053 17.4955C45.5144 17.8697 46.0854 17.9397 46.3284 17.6519C46.5714 17.3641 46.3943 16.8275 45.9327 16.4532C45.7504 16.3012 45.5336 16.1942 45.3004 16.1412L43.3251 14.5797L42.5972 15.5038L44.6218 16.945C44.7186 17.1596 44.8665 17.3484 45.053 17.4955Z" fill="#FFB6B6"/>
<path d="M39.1328 8.97977C39.1328 8.97977 37.5826 7.96374 37.075 8.46195C36.5673 8.96016 36.6886 10.2045 36.6886 10.2045L40.7538 14.8477L43.9773 16.8559L44.8417 15.5294L42.1316 13.1594L39.1328 8.97977Z" fill="#3F3D56"/>
<path d="M36.8604 6.77896L37.4229 8.7383H34.3358L35.3524 6.3241L36.8604 6.77896Z" fill="#FFB6B6"/>
<path opacity="0.1" d="M36.8604 6.77896L37.4229 8.7383H34.3358L35.3524 6.3241L36.8604 6.77896Z" fill="black"/>
<path d="M30.1282 21.2453C30.0884 21.831 30.3644 22.3258 30.7447 22.3506C31.125 22.3754 31.4655 21.9208 31.5053 21.3349C31.5245 21.1011 31.4862 20.8662 31.3938 20.6498L31.5306 18.1663L30.3401 18.1282L30.3315 20.5806C30.2106 20.783 30.1408 21.011 30.1282 21.2453Z" fill="#FFB6B6"/>
<path d="M33.7131 11.5583C33.7131 11.5583 33.6472 9.73174 32.938 9.61962C32.2287 9.50749 31.2698 10.3317 31.2698 10.3317L29.8048 16.2791L30.0283 20.0161L31.6317 19.9273L32.008 16.3868L33.7131 11.5583Z" fill="#3F3D56"/>
<path d="M40.5894 33.386C40.5894 33.386 41.756 35.5093 41.6727 35.4276C41.5893 35.346 40.1728 35.836 40.1728 35.836L39.3395 33.7126L40.5894 33.386Z" fill="#FFB6B6"/>
<path d="M42.3113 18.5232C42.3113 18.5232 42.9085 20.8627 42.8483 20.7634C42.788 20.6641 41.292 20.7972 41.292 20.7972L41.0178 18.5382L42.3113 18.5232Z" fill="#FFB6B6"/>
<path d="M37.6729 8.08496H34.7604L31.59 10.2083L30.6733 17.6399L31.1733 19.1099L32.0899 20.8248C32.0899 20.8248 31.1733 17.0682 33.4232 18.5382C35.673 20.0082 35.8397 20.2532 35.8397 20.2532L38.8395 18.7832L39.9644 12.6991L39.1312 9.35078L37.6729 8.08496Z" fill="#3F3D56"/>
<path d="M31.9233 18.1298C34.5597 18.4927 36.9409 18.1763 38.8812 16.6853C38.8812 16.6853 40.2978 21.3403 37.7146 21.8303C35.1314 22.3202 32.2566 21.4781 31.9233 20.6614C31.59 19.8448 31.9233 18.1298 31.9233 18.1298Z" fill="#2F2E41"/>
<path d="M36.8397 19.5999L39.7145 26.2403L41.0478 33.9169L39.2979 34.3252L36.1678 27.2611L31.9233 20.4982L36.8397 19.5999Z" fill="#2F2E41"/>
<path d="M37.2146 17.7062C37.2146 17.7062 37.8812 12.6429 39.1312 12.3162C39.7405 12.157 40.3102 12.1724 40.7342 12.2301C41.1614 12.2882 41.5021 12.6081 41.5768 13.0245L42.7126 19.3548H41.1064L40.5894 17.6398L39.2145 19.9928L37.2146 17.7062Z" fill="#2F2E41"/>
<path d="M41.2977 20.1561L42.8859 19.9928L43.1309 20.8911C43.1309 20.8911 45.7141 23.1778 44.3808 23.3411C43.0476 23.5044 41.7977 22.6061 41.7977 22.6061L39.9636 21.575C39.9636 21.575 40.6727 19.7223 41.1727 19.7223C41.6727 19.7223 41.2977 20.1561 41.2977 20.1561Z" fill="#2F2E41"/>
<path d="M40.4644 35.4685L42.0526 35.3052L42.2977 36.2035C42.2977 36.2035 44.8808 38.4902 43.5476 38.6535C42.2143 38.8168 40.9644 37.9185 40.9644 37.9185L39.1304 36.8874C39.1304 36.8874 39.2562 34.953 39.7562 34.953C40.2561 34.953 40.4644 35.4685 40.4644 35.4685Z" fill="#2F2E41"/>
<path d="M36.1271 7.2047C37.1538 7.2047 37.9862 6.38896 37.9862 5.38269C37.9862 4.37641 37.1538 3.56067 36.1271 3.56067C35.1003 3.56067 34.2679 4.37641 34.2679 5.38269C34.2679 6.38896 35.1003 7.2047 36.1271 7.2047Z" fill="#FFB6B6"/>
<path d="M36.8397 3.34806C36.8397 3.34806 37.1496 4.19833 36.6538 4.38053C36.1581 4.56273 35.4764 4.80567 35.5384 5.10934C35.6003 5.41301 35.3524 6.32402 35.3524 6.32402C35.3524 6.32402 36.8397 7.23502 35.8482 8.14603C34.8567 9.05704 34.113 8.68164 34.268 9.56778C34.4229 10.4539 32.8736 10.0895 32.8736 10.0895C32.8736 10.0895 32.3159 9.23924 32.7497 8.38897C33.1835 7.53869 32.4398 9.05704 32.2539 9.05704C32.068 9.05704 31.1385 9.29998 31.5103 8.2675C31.8821 7.23502 32.4398 7.17429 32.4398 6.38475C32.4398 5.59521 32.8117 4.62347 32.9356 4.502C33.0595 4.38053 33.6173 2.80145 34.7327 2.92292C35.8482 3.04439 36.8397 3.34806 36.8397 3.34806Z" fill="#2F2E41"/>
<path d="M20.5907 33.386C20.5907 33.386 19.4241 35.5093 19.5074 35.4276C19.5908 35.346 21.0073 35.836 21.0073 35.836L21.8406 33.7126L20.5907 33.386Z" fill="#A0616A"/>
<path d="M29.2568 18.1298C26.6204 18.4927 24.2391 18.1763 22.2988 16.6853C22.2988 16.6853 20.8823 21.3403 23.4654 21.8303C26.0486 22.3202 28.9234 21.4781 29.2568 20.6614C29.5901 19.8448 29.2568 18.1298 29.2568 18.1298Z" fill="#2F2E41"/>
<path d="M24.3404 19.5999L21.4656 26.2403L20.1323 33.9169L21.8822 34.3252L25.0123 27.2611L29.2568 20.4982L24.3404 19.5999Z" fill="#2F2E41"/>
<path d="M20.7157 35.4685L19.1275 35.3052L18.8825 36.2035C18.8825 36.2035 16.2993 38.4902 17.6325 38.6535C18.9658 38.8168 20.2157 37.9185 20.2157 37.9185L22.0498 36.8874C22.0498 36.8874 21.924 34.953 21.424 34.953C20.924 34.953 20.7157 35.4685 20.7157 35.4685Z" fill="#2F2E41"/>
<path d="M23.2248 32.2688C23.2248 32.2688 22.7835 34.6413 22.837 34.5384C22.8906 34.4356 24.3923 34.4733 24.3923 34.4733L24.5166 32.2017L23.2248 32.2688Z" fill="#A0616A"/>
<path d="M22.452 18.0214L21.8077 25.2071L22.956 32.9124L24.7491 32.7717L25.5028 25.1058L27.4114 17.3894L22.452 18.0214Z" fill="#2F2E41"/>
<path d="M23.9992 34.2121L22.4371 34.5369L22.4868 35.4655C22.4868 35.4655 20.7494 38.4216 22.0691 38.1739C23.3887 37.9261 24.2949 36.6937 24.2949 36.6937L25.7149 35.1584C25.7149 35.1584 24.9863 33.3564 24.5107 33.5075C24.0351 33.6587 23.9992 34.2121 23.9992 34.2121Z" fill="#2F2E41"/>
<path d="M23.9546 3.14771C23.9546 3.14771 23.1599 3.60445 23.4205 4.05614C23.6812 4.50784 24.0445 5.12309 23.798 5.31686C23.5515 5.51063 23.1446 6.36496 23.1446 6.36496C23.1446 6.36496 21.4075 6.1272 21.5706 7.44957C21.7337 8.77195 22.5497 8.95223 21.8503 9.53398C21.1509 10.1157 22.5772 10.8115 22.5772 10.8115C22.5772 10.8115 23.5619 10.5108 23.7865 9.58597C24.0112 8.66118 23.5863 10.2931 23.7288 10.4101C23.8713 10.5271 24.4246 11.2984 24.8162 10.2729C25.2077 9.24748 24.82 8.8499 25.3374 8.24469C25.8547 7.63948 26.2065 6.66058 26.1911 6.48947C26.1757 6.31835 26.7829 4.7569 25.8482 4.14795C24.9136 3.53899 23.9546 3.14771 23.9546 3.14771Z" fill="#2F2E41"/>
<path d="M24.3195 6.77896L23.7571 8.7383H26.8442L25.8276 6.3241L24.3195 6.77896Z" fill="#A0616A"/>
<path opacity="0.1" d="M24.3195 6.77896L23.7571 8.7383H26.8442L25.8276 6.3241L24.3195 6.77896Z" fill="black"/>
<path d="M31.052 21.2453C31.0918 21.831 30.8158 22.3258 30.4355 22.3506C30.0552 22.3754 29.7147 21.9208 29.6749 21.3349C29.6557 21.1011 29.694 20.8662 29.7864 20.6498L29.6495 18.1663L30.8401 18.1282L30.8486 20.5806C30.9696 20.783 31.0393 21.011 31.052 21.2453Z" fill="#A0616A"/>
<path d="M27.467 11.5583C27.467 11.5583 27.5329 9.73174 28.2421 9.61962C28.9514 9.50749 29.9103 10.3317 29.9103 10.3317L31.3753 16.2791L31.1518 20.0161L29.5484 19.9273L29.1721 16.3868L27.467 11.5583Z" fill="#00A2B7"/>
<path d="M23.5072 8.08496H26.4197L29.5902 10.2083L30.5068 17.6399L30.0068 19.1099L29.0902 20.8248C29.0902 20.8248 30.0068 17.0682 27.7569 18.5382C27.7344 18.5529 27.7121 18.5675 27.6901 18.5819C26.2418 19.53 24.3308 19.4326 22.9901 18.3431L21.924 17.4765L22.5072 14.6182L22.0489 9.35078L23.5072 8.08496Z" fill="#00A2B7"/>
<path d="M16.2192 17.3891C15.7521 17.7564 15.18 17.8179 14.9416 17.5265C14.7031 17.2351 14.8885 16.7012 15.3558 16.3338C15.5405 16.1846 15.7589 16.0808 15.9928 16.0312L17.9922 14.4994L18.7057 15.4342L16.6589 16.8451C16.5588 17.0582 16.408 17.2448 16.2192 17.3891Z" fill="#A0616A"/>
<path d="M22.2709 8.96246C22.2709 8.96246 23.8366 7.96964 24.3365 8.47535C24.8363 8.98106 24.6958 10.2235 24.6958 10.2235L20.5591 14.8056L17.3048 16.7655L16.4611 15.4263L19.2076 13.0969L22.2709 8.96246Z" fill="#00A2B7"/>
<path d="M25.0531 7.2047C26.0798 7.2047 26.9122 6.38896 26.9122 5.38269C26.9122 4.37641 26.0798 3.56067 25.0531 3.56067C24.0263 3.56067 23.194 4.37641 23.194 5.38269C23.194 6.38896 24.0263 7.2047 25.0531 7.2047Z" fill="#A0616A"/>
<path d="M24.1275 4.16136C24.1275 4.16136 23.8536 3.2666 24.3101 3.2666C24.7666 3.2666 26.5925 3.35608 26.7751 3.53503C26.9577 3.71398 29.1183 5.50996 27.8402 6.94157C26.562 8.37317 27.8402 9.06488 27.8402 9.06488C27.8402 9.06488 28.7836 11.2299 27.8707 11.4089C26.9577 11.5878 23.2128 10.5646 24.1275 8.90354C25.1201 7.10099 25.582 4.25594 24.1275 4.16136Z" fill="#2F2E41"/>
<path d="M54.549 17.4632C54.5195 17.3747 54.2958 17.4136 54.2743 17.3345C54.2529 17.2556 54.4675 17.1894 54.6322 16.9671C54.6618 16.927 54.8489 16.6744 54.7772 16.5681C54.6412 16.3667 53.6949 16.8684 53.4678 16.5869C53.4179 16.5251 53.3974 16.419 53.2489 16.2217C53.1898 16.1431 53.1519 16.1052 53.1066 16.1063C53.0424 16.1079 53.0194 16.1867 52.9184 16.3294C52.7669 16.5435 52.7123 16.5166 52.6125 16.6919C52.5384 16.8221 52.5297 16.9053 52.4762 16.9102C52.4007 16.9171 52.3694 16.7551 52.2771 16.7488C52.1828 16.7424 52.0885 16.9025 52.0418 17.0276C51.954 17.2624 52.0084 17.4419 52.0204 17.6207C52.0335 17.8151 52.0028 18.0996 51.7873 18.4648L49.7548 21.6385C50.1913 20.9915 51.4303 19.2273 51.9295 18.5801C52.0737 18.3933 52.2285 18.2057 52.4669 18.1704C52.6964 18.1365 52.9756 18.2477 53.3654 18.2413C53.4109 18.2405 53.5376 18.2368 53.5684 18.171C53.5939 18.1166 53.5306 18.0693 53.5536 18.0182C53.5845 17.9496 53.7233 17.979 53.9126 17.9335C54.046 17.9013 54.1367 17.8483 54.2146 17.8026C54.2381 17.7889 54.5883 17.581 54.549 17.4632Z" fill="#F2F2F2"/>
<path d="M49.2254 18.2041C49.1726 18.1928 49.1276 18.3116 49.0817 18.2991C49.0361 18.2867 49.0649 18.1643 49.001 18.021C48.9895 17.9952 48.917 17.8323 48.8431 17.8361C48.703 17.8434 48.6811 18.4433 48.4746 18.4714C48.4293 18.4775 48.3703 18.4568 48.2286 18.4713C48.1722 18.477 48.1423 18.4843 48.1298 18.5064C48.1121 18.5378 48.1449 18.5716 48.1872 18.6614C48.2507 18.796 48.2215 18.8145 48.2805 18.9131C48.3243 18.9863 48.3634 19.0145 48.3505 19.0416C48.3321 19.08 48.242 19.0482 48.2122 19.0908C48.1818 19.1343 48.2348 19.2259 48.2839 19.2845C48.3762 19.3944 48.4817 19.4201 48.5748 19.4659C48.6759 19.5157 48.8095 19.6125 48.9302 19.8216L49.9332 21.7149C49.7351 21.3183 49.2091 20.2133 49.029 19.7864C48.9771 19.6632 48.9278 19.5346 48.9789 19.4097C49.0281 19.2895 49.1644 19.1873 49.2736 18.998C49.2864 18.9759 49.3211 18.9139 49.297 18.8801C49.2771 18.8521 49.2352 18.8689 49.2162 18.8431C49.1908 18.8084 49.2456 18.7501 49.2774 18.6459C49.2998 18.5725 49.2993 18.5136 49.299 18.4629C49.2989 18.4476 49.2958 18.2192 49.2254 18.2041Z" fill="#F2F2F2"/>
<path d="M50.2261 18.6661L50.2576 18.3808L50.2769 18.3629C50.3664 18.28 50.4223 18.1923 50.4433 18.1019C50.4467 18.0876 50.4493 18.073 50.4519 18.0582C50.4624 17.9996 50.4754 17.9267 50.5329 17.8509C50.5651 17.8087 50.6503 17.7134 50.7381 17.7467C50.7619 17.7554 50.7779 17.7705 50.789 17.7864C50.7918 17.7837 50.7946 17.7809 50.7977 17.7779C50.8356 17.7418 50.8622 17.7285 50.8877 17.7158C50.9074 17.706 50.9277 17.6959 50.962 17.669C50.9771 17.6572 50.9891 17.6465 50.9993 17.6376C51.0301 17.6106 51.0696 17.5791 51.1236 17.5916C51.1808 17.6069 51.2004 17.6604 51.2135 17.6959C51.2367 17.7591 51.2439 17.8025 51.2486 17.8313C51.2503 17.8419 51.2523 17.8537 51.2538 17.8576C51.2663 17.8885 51.4236 17.8965 51.4828 17.8999C51.6159 17.907 51.731 17.9131 51.7587 18.0024C51.7785 18.0662 51.7371 18.1359 51.6321 18.2149C51.5993 18.2395 51.5666 18.2565 51.5381 18.2691C51.5557 18.2854 51.5696 18.3075 51.5705 18.3376C51.5724 18.4088 51.4979 18.4635 51.3489 18.5003C51.3119 18.5096 51.2621 18.5218 51.197 18.5187C51.1663 18.5172 51.1394 18.5126 51.1165 18.5083C51.1131 18.5211 51.1068 18.5344 51.0955 18.5471C51.0624 18.5843 51.0088 18.5937 50.9362 18.5727C50.856 18.5508 50.7926 18.521 50.7366 18.4949C50.6878 18.472 50.6457 18.4525 50.6103 18.4472C50.5446 18.4382 50.4833 18.478 50.4099 18.5309L50.2261 18.6661Z" fill="#F2F2F2"/>
<path d="M50.7507 17.0414L50.4612 17.0838L50.4386 17.0701C50.3341 17.0063 50.2333 16.9755 50.1388 16.9785C50.1237 16.979 50.1088 16.9802 50.0935 16.9814C50.0329 16.9864 49.9577 16.9926 49.8683 16.9572C49.8185 16.9374 49.7028 16.8809 49.7134 16.7891C49.716 16.7644 49.7268 16.7454 49.7397 16.7309C49.7363 16.7289 49.7328 16.7269 49.7291 16.7248C49.6838 16.698 49.664 16.6762 49.6449 16.6551C49.6303 16.639 49.6152 16.6223 49.5799 16.5966C49.5644 16.5853 49.5509 16.5766 49.5395 16.5692C49.505 16.5468 49.4639 16.5175 49.4625 16.4631C49.4631 16.4049 49.511 16.3727 49.5427 16.3514C49.5991 16.3133 49.6402 16.2955 49.6675 16.2837C49.6774 16.2794 49.6886 16.2745 49.692 16.2721C49.7194 16.2524 49.6874 16.1013 49.6757 16.0443C49.6489 15.9164 49.6258 15.8057 49.7069 15.7568C49.7649 15.7218 49.8441 15.7434 49.9488 15.8229C49.9813 15.8477 50.0064 15.8744 50.0261 15.8982C50.0377 15.8775 50.056 15.8586 50.0855 15.8502C50.1553 15.8303 50.2282 15.8871 50.3023 16.019C50.3208 16.0517 50.3455 16.0958 50.359 16.1583C50.3653 16.1878 50.3676 16.2144 50.3692 16.2373C50.3827 16.2372 50.3974 16.2398 50.4127 16.2473C50.4578 16.2693 50.4807 16.3177 50.4785 16.3919C50.4772 16.4735 50.4639 16.5411 50.4522 16.6008C50.4421 16.6529 50.4335 16.6978 50.4372 16.7326C50.445 16.7972 50.4998 16.8453 50.5707 16.9014L50.7507 17.0414Z" fill="#F2F2F2"/>
<path d="M50.7897 16.1893L50.8212 15.904L50.8405 15.8861C50.93 15.8032 50.9859 15.7155 51.0069 15.6251C51.0103 15.6107 51.0129 15.5962 51.0155 15.5814C51.026 15.5228 51.039 15.4499 51.0965 15.3741C51.1287 15.3319 51.2139 15.2366 51.3017 15.2699C51.3255 15.2786 51.3415 15.2937 51.3526 15.3096C51.3554 15.3069 51.3582 15.3041 51.3613 15.3011C51.3992 15.265 51.4258 15.2517 51.4513 15.239C51.471 15.2292 51.4913 15.2191 51.5256 15.1922C51.5407 15.1804 51.5527 15.1697 51.5629 15.1608C51.5937 15.1338 51.6332 15.1022 51.6872 15.1148C51.7444 15.1301 51.764 15.1836 51.7771 15.219C51.8003 15.2822 51.8075 15.3257 51.8122 15.3545C51.8139 15.3651 51.8159 15.3769 51.8174 15.3808C51.8299 15.4117 51.9872 15.4197 52.0464 15.4231C52.1795 15.4302 52.2946 15.4363 52.3223 15.5256C52.3421 15.5894 52.3007 15.6591 52.1957 15.7381C52.1629 15.7627 52.1302 15.7797 52.1017 15.7923C52.1192 15.8086 52.1332 15.8307 52.1341 15.8608C52.136 15.932 52.0615 15.9867 51.9125 16.0235C51.8755 16.0328 51.8257 16.045 51.7606 16.0419C51.7299 16.0404 51.703 16.0358 51.6801 16.0315C51.6767 16.0443 51.6704 16.0576 51.6591 16.0703C51.626 16.1074 51.5724 16.1169 51.4998 16.0959C51.4196 16.074 51.3562 16.0442 51.3002 16.018C51.2514 15.9952 51.2093 15.9757 51.1739 15.9704C51.1082 15.9614 51.0469 16.0012 50.9735 16.0541L50.7897 16.1893Z" fill="#F2F2F2"/>
<path d="M49.8508 21.6547L49.7996 21.6051L49.7285 21.5978C49.7288 21.5912 49.7283 21.5759 49.7278 21.5519C49.7251 21.4207 49.7166 21.0213 49.7733 20.4077C49.8129 19.9793 49.8792 19.5445 49.9701 19.1151C50.0612 18.6851 50.1558 18.3651 50.2317 18.1079C50.289 17.9139 50.3469 17.7299 50.4034 17.5507C50.5541 17.0718 50.6964 16.6195 50.7845 16.1036C50.8042 15.9884 50.8452 15.7487 50.7613 15.4657C50.7127 15.3016 50.6294 15.1471 50.5137 15.0067L50.6257 14.9181C50.7534 15.0732 50.8455 15.2443 50.8995 15.4265C50.9925 15.7403 50.9479 16.0015 50.9264 16.127C50.8367 16.652 50.693 17.1087 50.5408 17.5921C50.4846 17.7707 50.427 17.9539 50.3699 18.1471C50.2946 18.4019 50.2009 18.7191 50.111 19.1437C50.0211 19.5679 49.9557 19.9974 49.9165 20.4204C49.8605 21.0263 49.8689 21.4197 49.8717 21.549C49.8731 21.618 49.8734 21.6324 49.8508 21.6547Z" fill="#F2F2F2"/>
<path d="M50.2065 15.1691C50.2008 15.1678 50.195 15.1664 50.1892 15.1647C50.071 15.1323 49.9763 15.0379 49.9075 14.8844C49.8753 14.8122 49.8676 14.7362 49.8525 14.5846C49.8501 14.5612 49.8396 14.443 49.8525 14.2863C49.8609 14.1838 49.8722 14.1427 49.9006 14.1104C49.9322 14.0744 49.9747 14.0538 50.0197 14.0435C50.0209 14.0299 50.0254 14.0167 50.0344 14.0041C50.0714 13.952 50.1333 13.9734 50.1669 13.9845C50.1838 13.9905 50.2049 13.9981 50.2286 14.002C50.2659 14.0083 50.2882 14.0019 50.3218 13.9923C50.3541 13.9831 50.3942 13.9717 50.4496 13.9727C50.5589 13.9742 50.6399 14.0223 50.6666 14.0382C50.8071 14.121 50.8557 14.253 50.9118 14.4059C50.923 14.4366 50.96 14.5474 50.9687 14.6901C50.9749 14.793 50.9611 14.8351 50.9453 14.8652C50.9131 14.9272 50.8638 14.9559 50.7413 15.0163C50.6133 15.0796 50.5491 15.1112 50.4964 15.1275C50.3739 15.1652 50.297 15.1889 50.2065 15.1691Z" fill="#F2F2F2"/>
<path d="M13.9292 16.7164L13.8352 13.8097C13.8336 13.7625 13.8526 13.7166 13.8871 13.6837C13.9216 13.6507 13.9691 13.6335 14.0172 13.6363L16.3707 13.7746C16.4182 13.7774 16.4629 13.7997 16.4931 13.8357C16.5234 13.8718 16.537 13.919 16.5307 13.9652L16.1325 16.8542C16.1205 16.9417 16.0407 17.0055 15.9509 16.9997L14.0896 16.8791C14.0707 16.8778 14.0527 16.8737 14.036 16.8671C13.9746 16.8428 13.9314 16.7848 13.9292 16.7164Z" fill="#00A2B7"/>
<path d="M13.8381 13.5378C13.871 13.5344 13.9151 13.5302 13.9681 13.5258C13.9539 13.5 13.9481 13.4695 13.9542 13.4381L13.9962 13.2204C14.0071 13.1639 14.0535 13.1206 14.1117 13.1129C14.4582 13.0675 15.6502 12.9443 16.4007 13.278C16.4477 13.2989 16.4779 13.3447 16.4794 13.3953L16.4862 13.6275C16.4871 13.6563 16.4786 13.6829 16.4636 13.7049C16.526 13.7214 16.5882 13.7388 16.6499 13.7577C16.6886 13.7696 16.7163 13.8031 16.7209 13.8425L16.7326 13.9414C16.74 14.0042 16.6874 14.0582 16.6231 14.0539L13.8094 13.8677C13.7454 13.8635 13.7008 13.8036 13.7162 13.7425L13.7486 13.6141C13.7591 13.5727 13.7948 13.5422 13.8381 13.5378Z" fill="#3F3D56"/>
<path d="M6.8463 8.46811L6.75228 5.56139C6.75076 5.51421 6.76968 5.46827 6.80421 5.43536C6.83876 5.40243 6.88617 5.38517 6.93428 5.38799L9.28782 5.52633C9.33536 5.5291 9.37998 5.55139 9.41021 5.58744C9.44047 5.62348 9.45416 5.67068 9.44779 5.71692L9.04965 8.60595C9.0376 8.69337 8.95784 8.75726 8.86805 8.75142L7.00668 8.63078C6.98779 8.62955 6.96981 8.62543 6.95315 8.61883C6.89168 8.59446 6.84852 8.53655 6.8463 8.46811Z" fill="#00A2B7"/>
<path d="M6.75518 5.28949C6.78811 5.28609 6.83221 5.28191 6.88517 5.27756C6.87101 5.25172 6.86522 5.22117 6.87127 5.18982L6.9133 4.97209C6.92421 4.91558 6.97066 4.87226 7.02882 4.86464C7.37536 4.81923 8.56729 4.69602 9.31782 5.02972C9.36478 5.05061 9.39499 5.09645 9.39648 5.14696L9.40335 5.37924C9.4042 5.40796 9.39568 5.43458 9.38076 5.45665C9.44315 5.47309 9.50534 5.49048 9.56703 5.50944C9.60569 5.52132 9.63337 5.55476 9.63801 5.59421L9.64967 5.69315C9.65707 5.75593 9.60455 5.80991 9.54022 5.80565L6.72653 5.61942C6.66249 5.61518 6.6179 5.55529 6.63331 5.49424L6.66573 5.36579C6.67617 5.32441 6.71192 5.29395 6.75518 5.28949Z" fill="#3F3D56"/>
<path d="M43.7607 17.4514L43.6667 14.5447C43.6652 14.4975 43.6841 14.4515 43.7186 14.4186C43.7532 14.3857 43.8006 14.3684 43.8487 14.3713L46.2022 14.5096C46.2498 14.5124 46.2944 14.5347 46.3246 14.5707C46.3549 14.6068 46.3686 14.654 46.3622 14.7002L45.9641 17.5892C45.952 17.6766 45.8723 17.7405 45.7825 17.7347L43.9211 17.6141C43.9022 17.6128 43.8842 17.6087 43.8676 17.6021C43.8061 17.5777 43.7629 17.5198 43.7607 17.4514Z" fill="#00A2B7"/>
<path d="M43.6696 14.2728C43.7025 14.2694 43.7466 14.2652 43.7996 14.2608C43.7854 14.235 43.7796 14.2044 43.7857 14.1731L43.8277 13.9554C43.8386 13.8989 43.8851 13.8555 43.9433 13.8479C44.2898 13.8025 45.4817 13.6793 46.2323 14.013C46.2792 14.0339 46.3094 14.0797 46.3109 14.1302L46.3178 14.3625C46.3186 14.3912 46.3101 14.4179 46.2952 14.4399C46.3576 14.4564 46.4198 14.4738 46.4815 14.4927C46.5201 14.5046 46.5478 14.538 46.5524 14.5775L46.5641 14.6764C46.5715 14.7392 46.519 14.7932 46.4546 14.7889L43.641 14.6027C43.5769 14.5985 43.5323 14.5386 43.5477 14.4775L43.5802 14.3491C43.5906 14.3077 43.6264 14.2772 43.6696 14.2728Z" fill="#3F3D56"/>
</g>
<defs>
<clipPath id="clip0_80_557">
<rect width="55" height="39" fill="white"/>
</clipPath>
</defs>
</svg>
