<svg width="15" height="16" viewBox="0 0 15 16" fill="none" xmlns="http://www.w3.org/2000/svg">
<g clip-path="url(#clip0_1728_8286)">
<path d="M14.971 6.69918L14.967 6.68334L12.7203 1.03854C12.6201 0.719773 12.3218 0.5 11.9834 0.5H2.87631C2.5359 0.5 2.23353 0.723733 2.13741 1.04646L0.0368614 6.63384L0.0308543 6.6477L0.0268492 6.66354C0.0008176 6.76056 -0.00719213 6.85956 0.00682489 6.95657C0.00482246 6.98825 0.00282009 7.01993 0.00282009 7.05161V14.2962C0.0033496 14.6153 0.131789 14.9212 0.359996 15.1468C0.588203 15.3725 0.897566 15.4995 1.2203 15.5H13.7795C14.4504 15.5 14.997 14.9595 14.999 14.2962V7.05161C14.999 7.02587 14.999 7.00013 14.997 6.97835C15.005 6.88134 14.997 6.78828 14.971 6.69918ZM9.0478 5.84781L9.04179 6.15866C9.02578 7.04765 8.40502 7.64559 7.49792 7.64559C7.05538 7.64559 6.67492 7.50502 6.40059 7.23772C6.12626 6.97043 5.97607 6.5982 5.96806 6.15866L5.96206 5.84781H1.84105L3.43299 2.02059H11.4267L13.0627 5.84781H9.0478ZM1.53868 7.3684H4.68851C5.1751 8.49894 6.21036 9.16618 7.49992 9.16618C8.17474 9.16618 8.8015 8.98007 9.30812 8.62764C9.75266 8.31877 10.0991 7.88714 10.3234 7.3684H13.4572V13.9794H1.53868V7.3684Z" fill="#030723"/>
</g>
<defs>
<clipPath id="clip0_1728_8286">
<rect width="15" height="15" fill="white" transform="translate(0 0.5)"/>
</clipPath>
</defs>
</svg>
