<svg width="23" height="23" viewBox="0 0 23 23" fill="none" xmlns="http://www.w3.org/2000/svg">
<circle cx="11.5" cy="11.5" r="11.5" fill="#00A2B7" fill-opacity="0.8"/>
<path d="M10.2056 5.97998C10.0138 5.97999 9.82578 6.03328 9.66252 6.13392C9.49926 6.23456 9.36717 6.37858 9.28099 6.54992L8.87389 7.35998H7.70779C7.25029 7.35998 6.81153 7.54172 6.48803 7.86522C6.16453 8.18872 5.98279 8.62748 5.98279 9.08498V14.605C5.98279 15.0625 6.16453 15.5012 6.48803 15.8247C6.81153 16.1482 7.25029 16.33 7.70779 16.33H11.224C11.1112 16.1094 11.0204 15.8783 10.9529 15.64H7.70848C7.43398 15.64 7.17072 15.5309 6.97662 15.3368C6.78252 15.1427 6.67348 14.8795 6.67348 14.605V9.08498C6.67348 8.81048 6.78252 8.54722 6.97662 8.35312C7.17072 8.15902 7.43398 8.04998 7.70848 8.04998H9.0871C9.151 8.04985 9.21361 8.03198 9.26794 7.99835C9.32228 7.96472 9.36621 7.91667 9.39484 7.85954L9.89716 6.85973C9.92593 6.80263 9.97001 6.75464 10.0245 6.72114C10.0789 6.68763 10.1416 6.66992 10.2056 6.66998H12.8027C12.8669 6.66985 12.9298 6.68761 12.9844 6.72125C13.039 6.75489 13.0831 6.80308 13.1119 6.86042L13.6107 7.85885C13.6394 7.91608 13.6835 7.96421 13.7379 7.99784C13.7924 8.03147 13.8552 8.04929 13.9192 8.04929H15.2985C15.573 8.04929 15.8362 8.15833 16.0303 8.35243C16.2244 8.54653 16.3335 8.80979 16.3335 9.08429V11.2254C16.5794 11.3513 16.8107 11.5038 17.0235 11.6801V9.08429C17.0235 8.62679 16.8417 8.18803 16.5182 7.86453C16.1947 7.54103 15.756 7.35929 15.2985 7.35929H14.1324L13.7287 6.55199C13.6427 6.38006 13.5106 6.23547 13.347 6.13444C13.1834 6.03341 12.995 5.97992 12.8027 5.97998H10.2056ZM11.5 8.73998C12.1162 8.74001 12.7146 8.94609 13.2001 9.32544C13.6856 9.70478 14.0303 10.2356 14.1793 10.8334C13.9499 10.8591 13.7233 10.9058 13.5024 10.9728C13.4097 10.6206 13.2257 10.299 12.969 10.0406C12.7123 9.78212 12.3919 9.59599 12.0403 9.50093C11.6886 9.40587 11.3182 9.40525 10.9662 9.49914C10.6142 9.59303 10.2933 9.7781 10.0357 10.0357C9.77814 10.2932 9.59308 10.6142 9.49919 10.9662C9.4053 11.3181 9.40592 11.6886 9.50098 12.0402C9.59604 12.3919 9.78217 12.7122 10.0406 12.9689C10.299 13.2256 10.6206 13.4096 10.9729 13.5024C10.9059 13.723 10.8592 13.9494 10.8335 14.1786C10.1815 14.0138 9.61208 13.6168 9.23201 13.062C8.85194 12.5073 8.68736 11.8329 8.76917 11.1654C8.85097 10.498 9.17353 9.88327 9.67632 9.43672C10.1791 8.99016 10.8276 8.74242 11.5 8.73998ZM17.71 14.605C17.71 15.4285 17.3829 16.2182 16.8006 16.8005C16.2183 17.3828 15.4285 17.71 14.605 17.71C13.7815 17.71 12.9918 17.3828 12.4095 16.8005C11.8272 16.2182 11.5 15.4285 11.5 14.605C11.5 13.7815 11.8272 12.9917 12.4095 12.4094C12.9918 11.8271 13.7815 11.5 14.605 11.5C15.4285 11.5 16.2183 11.8271 16.8006 12.4094C17.3829 12.9917 17.71 13.7815 17.71 14.605ZM14.95 13.225C14.95 13.1335 14.9137 13.0457 14.849 12.981C14.7843 12.9163 14.6965 12.88 14.605 12.88C14.5135 12.88 14.4258 12.9163 14.3611 12.981C14.2964 13.0457 14.26 13.1335 14.26 13.225V14.26H13.225C13.1335 14.26 13.0458 14.2963 12.9811 14.361C12.9164 14.4257 12.88 14.5135 12.88 14.605C12.88 14.6965 12.9164 14.7842 12.9811 14.8489C13.0458 14.9136 13.1335 14.95 13.225 14.95H14.26V15.985C14.26 16.0765 14.2964 16.1642 14.3611 16.2289C14.4258 16.2936 14.5135 16.33 14.605 16.33C14.6965 16.33 14.7843 16.2936 14.849 16.2289C14.9137 16.1642 14.95 16.0765 14.95 15.985V14.95H15.985C16.0765 14.95 16.1643 14.9136 16.229 14.8489C16.2937 14.7842 16.33 14.6965 16.33 14.605C16.33 14.5135 16.2937 14.4257 16.229 14.361C16.1643 14.2963 16.0765 14.26 15.985 14.26H14.95V13.225Z" fill="white"/>
</svg>
