<svg width="17" height="16" viewBox="0 0 17 16" fill="none" xmlns="http://www.w3.org/2000/svg">
<path d="M8.30662 1.24257H1.81081C1.59577 1.24257 1.38954 1.32376 1.23748 1.46829C1.08542 1.61282 1 1.80885 1 2.01324V14.7293C1 14.9337 1.08542 15.1297 1.23748 15.2743C1.38954 15.4188 1.59577 15.5 1.81081 15.5H15.1892C15.4042 15.5 15.6105 15.4188 15.7625 15.2743C15.9146 15.1297 16 14.9337 16 14.7293V2.01324C16 1.80885 15.9146 1.61282 15.7625 1.46829C15.6105 1.32376 15.4042 1.24257 15.1892 1.24257H13.1832" stroke="black" stroke-linecap="round" stroke-linejoin="round"/>
<path d="M12.8743 8.78038L16 8.32687M1 10.5036L9.03513 9.33734M6.03027 9.77367L4.51405 1.31426M10.7451 0.5C9.71789 0.5 8.73271 0.884254 8.00634 1.56823C7.27996 2.25221 6.87189 3.17988 6.87189 4.14717C6.87189 7.00184 9.83662 10.4421 10.6045 11.2858C10.6266 11.3101 10.654 11.3296 10.685 11.3429C10.7159 11.3562 10.7495 11.363 10.7835 11.3628C10.8175 11.3626 10.8511 11.3555 10.8818 11.3418C10.9126 11.3282 10.9398 11.3084 10.9616 11.2838C11.7165 10.4379 14.6184 6.99993 14.6184 4.14755C14.6184 3.66856 14.5183 3.19426 14.3237 2.75172C14.129 2.30918 13.8437 1.90708 13.4841 1.56837C13.1244 1.22965 12.6974 0.960972 12.2275 0.777661C11.7575 0.594349 11.2538 0.5 10.7451 0.5ZM10.7451 5.51037C10.4589 5.51037 10.1791 5.43044 9.94106 5.28069C9.70305 5.13094 9.51755 4.9181 9.40801 4.66908C9.29846 4.42005 9.2698 4.14604 9.32565 3.88168C9.38149 3.61731 9.51933 3.37448 9.72174 3.18389C9.92415 2.9933 10.182 2.8635 10.4628 2.81091C10.7435 2.75833 11.0345 2.78532 11.299 2.88847C11.5635 2.99162 11.7895 3.16629 11.9485 3.39041C12.1076 3.61452 12.1924 3.87801 12.1924 4.14755C12.1924 4.32652 12.155 4.50373 12.0823 4.66908C12.0095 4.83442 11.9029 4.98466 11.7685 5.11121C11.6341 5.23776 11.4746 5.33814 11.299 5.40663C11.1234 5.47512 10.9352 5.51037 10.7451 5.51037Z" stroke="black" stroke-linecap="round" stroke-linejoin="round"/>
</svg>
