<svg width="150" height="79" viewBox="0 0 150 79" fill="none" xmlns="http://www.w3.org/2000/svg">
<path d="M75.1125 38.1211C74.9247 37.7432 74.9943 37.2881 75.2864 36.9836L78.8905 33.227C79.3713 32.7259 80.2038 32.8553 80.5098 33.4786L86.3401 45.3562C86.6663 46.0206 86.1826 46.7968 85.4424 46.7968H84.9012C84.1263 46.7968 83.6459 45.9536 84.0409 45.287L95.6478 25.7026C95.8279 25.3987 96.1549 25.2124 96.5081 25.2124H102.335C102.886 25.2124 103.334 25.6584 103.335 26.2096L103.42 55.9513C103.422 56.5047 102.974 56.9541 102.42 56.9541H96.1625C95.612 56.9541 95.1651 56.5093 95.1625 55.9589L95.0789 38.284C95.0775 38.0022 95.3056 37.7731 95.5874 37.7731C95.982 37.7731 96.2263 38.2031 96.0242 38.5421L87.2021 53.3375C87.0217 53.64 86.6954 53.8253 86.3432 53.8253H83.5389C83.1593 53.8253 82.8125 53.6104 82.6435 53.2705L75.1125 38.1211Z" fill="#02676C"/>
<path d="M120.938 57.589C118.337 57.589 115.827 57.2716 113.407 56.6367C111.375 56.0709 109.659 55.3737 108.262 54.5452C107.845 54.2984 107.699 53.7757 107.896 53.3336L110.032 48.5378C110.281 47.9793 110.967 47.7741 111.502 48.0698C112.676 48.7184 113.976 49.2766 115.403 49.7442C117.278 50.3186 119.138 50.6058 120.983 50.6058C122.223 50.6058 123.221 50.5 123.977 50.2884C124.733 50.0465 125.277 49.7442 125.61 49.3815C125.973 48.9885 126.154 48.535 126.154 48.0211C126.154 47.2956 125.822 46.7212 125.156 46.298C124.491 45.8748 123.629 45.5271 122.571 45.2551C121.512 44.983 120.333 44.7109 119.032 44.4388C117.762 44.1668 116.477 43.8191 115.177 43.3959C113.906 42.9727 112.742 42.4285 111.684 41.7635C110.625 41.0682 109.763 40.1764 109.098 39.0881C108.433 37.9696 108.1 36.5639 108.1 34.871C108.1 32.9665 108.614 31.2434 109.642 29.7016C110.701 28.1599 112.273 26.9204 114.36 25.9833C116.447 25.0462 119.048 24.5776 122.162 24.5776C124.249 24.5776 126.29 24.8194 128.286 25.3031C129.988 25.684 131.53 26.2249 132.912 26.9258C133.36 27.153 133.54 27.6907 133.348 28.1546L131.342 32.987C131.115 33.5341 130.465 33.7629 129.931 33.5062C128.754 32.9399 127.586 32.503 126.426 32.1956C124.945 31.7724 123.508 31.5608 122.117 31.5608C120.877 31.5608 119.879 31.6968 119.123 31.9689C118.367 32.2107 117.823 32.5433 117.49 32.9665C117.157 33.3897 116.991 33.8734 116.991 34.4175C116.991 35.1128 117.309 35.6721 117.944 36.0953C118.609 36.4883 119.471 36.8208 120.529 37.0929C121.618 37.3347 122.797 37.5917 124.068 37.8638C125.368 38.1358 126.653 38.4835 127.923 38.9067C129.224 39.2997 130.403 39.8438 131.462 40.5391C132.52 41.2042 133.367 42.096 134.002 43.2145C134.667 44.3028 135 45.6783 135 47.3409C135 49.185 134.471 50.893 133.412 52.465C132.384 54.0067 130.827 55.2461 128.74 56.1833C126.684 57.1204 124.083 57.589 120.938 57.589Z" fill="#02676C"/>
<path d="M55.0857 57.1997C54.6952 57.5901 54.0622 57.5901 53.6717 57.1997L27.8203 31.3581C27.4297 30.9676 27.4296 30.3343 27.8202 29.9437L33.0439 24.7201C33.4343 24.3296 34.0674 24.3295 34.458 24.7199L53.6718 43.9265C54.0622 44.3168 54.6952 44.3168 55.0857 43.9265L73.5004 25.5187C73.7995 25.2197 73.8795 24.7639 73.6897 24.386C68.5109 14.0756 57.8387 7 45.5106 7C33.1748 7 22.4973 14.0857 17.3233 24.4088C17.1339 24.7866 17.214 25.242 17.5129 25.5408L42.6007 50.6191C42.9913 51.0096 42.9914 51.6429 42.6008 52.0334L37.4348 57.1995C37.0443 57.59 36.4112 57.59 36.0206 57.1996L15.6476 36.832C15.0514 36.236 14.0452 36.6015 14.0174 37.444C14.0058 37.7948 14 38.1472 14 38.5013C14 55.8976 28.1077 70 45.5106 70C62.916 70 77.0238 55.8976 77.0238 38.5013C77.0238 38.177 77.0187 37.8543 77.0087 37.5329C76.9825 36.688 75.9721 36.3189 75.3743 36.9165L55.0857 57.1997Z" fill="#02676C"/>
</svg>
