<svg width="220" height="31" viewBox="0 0 220 31" fill="none" xmlns="http://www.w3.org/2000/svg">
<path d="M110.456 15.6493C110.268 15.2715 110.337 14.8166 110.629 14.5121L111.571 13.5298C112.052 13.0286 112.885 13.158 113.191 13.7815L115.582 18.6546C115.762 19.0219 115.495 19.4509 115.086 19.4509C114.657 19.4509 114.392 18.9848 114.61 18.6163L119.914 9.66288C120.095 9.35896 120.422 9.17259 120.775 9.17259H122.727C123.279 9.17259 123.726 9.61856 123.727 10.1697L123.765 23.2848C123.766 23.8382 123.318 24.2877 122.765 24.2877H120.833C120.283 24.2877 119.836 23.8428 119.833 23.2924L119.796 15.3971C119.795 15.2629 119.904 15.1538 120.038 15.1538C120.226 15.1538 120.342 15.3585 120.246 15.5199L116.199 22.3098C116.018 22.6124 115.692 22.7978 115.34 22.7978H114.627C114.248 22.7978 113.901 22.5828 113.732 22.2428L110.456 15.6493Z" fill="white"/>
<path d="M132.105 24.59C130.867 24.59 129.672 24.4388 128.52 24.1365C127.731 23.9167 127.042 23.6553 126.454 23.3523C126.024 23.1307 125.878 22.6057 126.075 22.1637L126.666 20.8359C126.915 20.2773 127.603 20.0729 128.156 20.3342C128.565 20.528 129.004 20.7014 129.471 20.8544C130.363 21.1279 131.248 21.2647 132.126 21.2647C132.717 21.2647 133.192 21.2143 133.552 21.1135C133.911 20.9984 134.171 20.8544 134.329 20.6817C134.502 20.4945 134.588 20.2786 134.588 20.0339C134.588 19.6884 134.43 19.4149 134.113 19.2133C133.796 19.0118 133.386 18.8463 132.882 18.7167C132.378 18.5871 131.817 18.4576 131.198 18.328C130.593 18.1985 129.982 18.0329 129.363 17.8314C128.758 17.6298 128.204 17.3707 127.7 17.054C127.196 16.7229 126.786 16.2983 126.469 15.78C126.152 15.2474 125.994 14.578 125.994 13.7719C125.994 12.865 126.239 12.0445 126.728 11.3103C127.232 10.5761 127.981 9.98592 128.974 9.53967C129.967 9.09341 131.205 8.87028 132.688 8.87028C133.681 8.87028 134.653 8.98545 135.603 9.21577C136.246 9.35984 136.842 9.55196 137.389 9.79215C137.849 9.99394 138.029 10.5344 137.836 10.9982L137.28 12.3388C137.053 12.8861 136.404 13.1115 135.856 12.885C135.475 12.7271 135.095 12.5981 134.718 12.4979C134.012 12.2964 133.328 12.1956 132.666 12.1956C132.076 12.1956 131.601 12.2604 131.241 12.3899C130.881 12.5051 130.622 12.6635 130.464 12.865C130.305 13.0665 130.226 13.2968 130.226 13.556C130.226 13.8871 130.377 14.1534 130.68 14.3549C130.996 14.542 131.407 14.7004 131.911 14.83C132.429 14.9451 132.99 15.0675 133.595 15.197C134.214 15.3266 134.826 15.4921 135.43 15.6937C136.049 15.8808 136.611 16.1399 137.114 16.471C137.618 16.7877 138.021 17.2124 138.324 17.745C138.64 18.2632 138.799 18.9182 138.799 19.71C138.799 20.5881 138.547 21.4014 138.043 22.15C137.554 22.8841 136.812 23.4744 135.819 23.9206C134.84 24.3669 133.602 24.59 132.105 24.59Z" fill="white"/>
<path d="M101.129 24.034C100.739 24.4246 100.106 24.4246 99.715 24.034L88.1503 12.4693C87.7598 12.0789 87.7598 11.4458 88.1502 11.0553L89.8959 9.30884C90.2864 8.91819 90.9197 8.91813 91.3103 9.30871L99.715 17.7135C100.106 18.104 100.739 18.104 101.129 17.7135L109.263 9.57953C109.562 9.28057 109.644 8.82417 109.445 8.45113C106.921 3.71995 101.938 0.5 96.2008 0.5C90.4603 0.5 85.4741 3.7248 82.9526 8.46216C82.7541 8.8351 82.8357 9.29108 83.1345 9.58982L94.4454 20.9007C94.8359 21.2912 94.8359 21.9243 94.4455 22.3148L92.7272 24.0338C92.3367 24.4244 91.7034 24.4245 91.3128 24.0339L82.3419 15.0619C81.9156 14.6356 81.2014 14.8978 81.2014 15.5006C81.2014 23.7846 87.9169 30.5 96.2008 30.5C104.486 30.5 111.201 23.7846 111.201 15.5006C111.201 14.9143 110.505 14.6576 110.09 15.0722L101.129 24.034Z" fill="white"/>
</svg>
