<svg width="250" height="43" viewBox="0 0 250 43" fill="none" xmlns="http://www.w3.org/2000/svg">
<path d="M11.5341 0.0112305L21.3788 9.856L18.1166 18.0985L9.87407 21.3608L0.0292969 11.516L3.27586 3.28933L11.5341 0.0112305Z" fill="#FF7733"/>
<path d="M32.9074 21.3765L42.7522 31.2212L39.4898 39.4637L31.2473 42.7313L21.3973 32.8812L24.6492 24.6545L32.9074 21.3765Z" fill="#FF7733"/>
<path d="M21.3827 9.84474L31.2274 0L39.4752 3.26232L42.7375 11.5048L32.8928 21.3496L24.6607 18.103L21.3827 9.84474Z" fill="#FF7733"/>
<path d="M0 31.2328L9.84474 21.3828L18.0872 24.6504L21.3496 32.8929L11.5048 42.7377L3.27808 39.4911L0 31.2328Z" fill="#FF7733"/>
<path d="M71.6825 18.8499H59.6471V8.19092H54.2939V34.5469H59.6471V23.7303H71.6825V34.5469H77.1145V8.19092H71.6825V18.8499Z" fill="white"/>
<path d="M93.8155 15.5487C92.3105 14.8416 90.6603 14.4979 88.9983 14.5453C87.3698 14.5072 85.7529 14.8377 84.2705 15.5119C82.9868 16.0958 81.8943 17.0299 81.1182 18.2069C80.3564 19.4182 79.9673 20.8266 79.9993 22.2572V22.6932H85.116V22.2572C85.116 21.133 85.4049 20.3503 85.9775 19.9195C86.5501 19.4887 87.475 19.268 88.7354 19.268C89.7104 19.2204 90.682 19.4097 91.5668 19.8197C92.2496 20.1874 92.5918 21.0402 92.5918 22.3781V23.0662L85.7621 24.0696C84.5618 24.2054 83.3923 24.5372 82.3002 25.052C81.4316 25.4565 80.6942 26.0973 80.1725 26.9012C79.6918 27.7089 79.4479 28.6354 79.4686 29.5751C79.4686 31.335 80.0623 32.6694 81.2548 33.5887C82.5198 34.5291 84.066 35.0142 85.6411 34.965C86.7237 34.9926 87.8022 34.8326 88.8297 34.4922C89.6286 34.2164 90.374 33.804 91.0309 33.2735C91.5818 32.8302 92.0835 32.3301 92.5284 31.7816H92.6862V34.571H97.7237V22.9033C97.768 21.3428 97.4291 19.7952 96.7362 18.396C96.086 17.1638 95.0643 16.1675 93.8155 15.5487ZM91.8297 29.3019C91.3038 29.8807 90.6185 30.2903 89.8598 30.4787C89.1027 30.6853 88.3222 30.7912 87.5376 30.7939C86.8038 30.8404 86.0693 30.7126 85.394 30.4209C85.172 30.3033 84.9883 30.1235 84.8656 29.9033C84.7437 29.6832 84.6887 29.4322 84.7062 29.1811C84.6937 28.9741 84.7329 28.7674 84.8189 28.5787C84.9049 28.3901 85.0359 28.2254 85.2003 28.0989C85.6753 27.7985 86.2162 27.6182 86.7763 27.5736L92.6386 26.6911V26.7488C92.6928 27.6624 92.4049 28.5634 91.8297 29.2757V29.3019Z" fill="white"/>
<path d="M113.941 14.9155L110.909 23.2945L109.57 27.1084H109.218L107.605 23.2892L104.18 14.9102H98.202L106.528 33.7959L106.071 34.7783C105.884 35.3316 105.513 35.8044 105.02 36.1179C104.463 36.3322 103.867 36.4253 103.271 36.3911H100.203V40.8407C100.688 40.9674 101.181 41.0587 101.679 41.1139C102.286 41.1929 102.897 41.2333 103.508 41.2347C104.613 41.259 105.715 41.1119 106.775 40.7986C107.679 40.4974 108.483 39.952 109.097 39.2226C109.851 38.3053 110.461 37.2777 110.904 36.1757L119.914 14.8892L113.941 14.9155Z" fill="white"/>
<path d="M134.732 15.7891C133.11 14.9071 131.282 14.4721 129.437 14.5283C127.568 14.4798 125.72 14.914 124.068 15.7891C122.588 16.602 121.388 17.8436 120.627 19.3508C119.848 21.041 119.445 22.8799 119.445 24.7408C119.445 26.6017 119.848 28.4405 120.627 30.1307C121.388 31.6379 122.588 32.8795 124.068 33.6925C125.72 34.5635 127.569 34.9958 129.437 34.948C131.282 35.0033 133.109 34.5702 134.732 33.6925C136.18 32.8572 137.356 31.62 138.115 30.1307C138.905 28.4434 139.314 26.6035 139.314 24.7408C139.314 22.8781 138.905 21.0381 138.115 19.3508C137.356 17.8615 136.18 16.6243 134.732 15.7891ZM133.078 28.9697C132.377 29.7857 131.164 30.192 129.437 30.1884C127.71 30.1849 126.498 29.7787 125.801 28.9697C125.077 28.1554 124.72 26.7423 124.72 24.7198C124.72 22.6972 125.077 21.2894 125.801 20.4908C126.527 19.6923 127.735 19.293 129.437 19.293C131.139 19.293 132.384 19.6923 133.078 20.4908C133.771 21.2894 134.129 22.7025 134.129 24.7198C134.129 26.737 133.792 28.1659 133.078 28.9697Z" fill="white"/>
<path d="M148.168 10.1548H143.966L142.915 14.9143H139.573V19.3639H142.799V28.158C142.799 30.466 143.422 32.112 144.669 33.0961C145.917 34.0802 147.772 34.5706 150.238 34.5671C150.895 34.5678 151.551 34.5292 152.203 34.4515C152.771 34.389 153.336 34.2961 153.894 34.1731V29.734H151.656C150.27 29.734 149.345 29.6184 148.882 29.382C148.42 29.1456 148.195 28.5677 148.195 27.6484V19.3639H153.9V14.9143H148.168V10.1548Z" fill="white"/>
<path d="M179.053 20.8062V20.4122C180.814 20.2021 182.117 19.6085 182.967 18.6208C183.851 17.5594 184.307 16.2075 184.25 14.8279C184.307 13.499 183.965 12.1833 183.267 11.0508C182.566 10.0446 181.558 9.29255 180.393 8.90741C178.912 8.41217 177.354 8.17929 175.791 8.21924H163.083V34.5752H176.348C178.031 34.6231 179.705 34.3226 181.265 33.6926C182.507 33.1815 183.563 32.3036 184.291 31.1763C184.993 30.0202 185.347 28.6877 185.316 27.3361C185.36 25.7105 184.798 24.1265 183.74 22.8918C182.69 21.666 181.127 20.9708 179.053 20.8062ZM168.432 13.0313H175.356C176.282 12.9612 177.21 13.1523 178.035 13.5829C178.56 13.9506 178.86 14.7229 178.86 15.8996C178.86 17.0764 178.581 17.8171 178.035 18.1848C177.228 18.6106 176.318 18.8016 175.408 18.7364H168.432V13.0313ZM178.897 29.1012C178.055 29.5614 177.1 29.7728 176.144 29.7107H168.432V23.2175H176.144C177.099 23.159 178.05 23.3644 178.897 23.8112C179.527 24.2052 179.841 25.093 179.841 26.4851C179.841 27.8772 179.527 28.6862 178.897 29.1012Z" fill="white"/>
<path d="M201.224 15.5488C199.716 14.8416 198.064 14.4979 196.401 14.5453C194.772 14.5083 193.156 14.8387 191.673 15.5119C190.398 16.0992 189.315 17.0331 188.547 18.2069C187.785 19.4182 187.396 20.8266 187.428 22.2572V22.6932H192.539V22.2572C192.539 21.133 192.829 20.3503 193.406 19.9195C193.984 19.4887 194.898 19.268 196.159 19.268C197.134 19.2197 198.105 19.409 198.991 19.8197C199.691 20.1874 200.032 21.0402 200.015 22.3781V23.0662L193.185 24.0696C191.986 24.2054 190.816 24.5372 189.724 25.052C188.866 25.4614 188.138 26.1016 187.623 26.9012C187.138 27.7074 186.891 28.6347 186.913 29.5751C186.867 30.3388 187.006 31.1024 187.318 31.8011C187.629 32.4998 188.105 33.1129 188.704 33.5887C189.969 34.5306 191.515 35.0159 193.091 34.965C194.184 34.9855 195.272 34.8149 196.306 34.4607C197.103 34.1825 197.848 33.7703 198.507 33.2419C199.058 32.7987 199.559 32.2986 200.004 31.75H200.162V34.5395H205.194V22.9033C205.24 21.3432 204.903 19.7957 204.213 18.396C203.543 17.1543 202.496 16.1574 201.224 15.5488ZM199.232 29.3019C198.709 29.8806 198.025 30.2902 197.268 30.4787C196.511 30.6847 195.73 30.7907 194.946 30.7939C194.212 30.8414 193.477 30.7136 192.802 30.4209C192.61 30.3014 192.448 30.1388 192.331 29.9459C192.212 29.7531 192.14 29.5353 192.121 29.3099C192.102 29.0845 192.135 28.8577 192.219 28.6475C192.302 28.4373 192.434 28.2495 192.603 28.0989C193.078 27.7995 193.618 27.6193 194.179 27.5736L200.041 26.6911V26.7488C200.095 27.6624 199.807 28.5634 199.232 29.2757V29.3019Z" fill="white"/>
<path d="M224.32 15.545C223.029 14.8272 221.566 14.48 220.091 14.5417C219.033 14.5188 217.979 14.6861 216.981 15.0355C216.163 15.331 215.422 15.8089 214.816 16.4328C214.245 17.0266 213.767 17.7031 213.398 18.4396H213.204V14.9357H208.208V34.5674H213.598V23.4251C213.555 22.5403 213.717 21.6579 214.07 20.8457C214.361 20.2504 214.866 19.7869 215.483 19.5481C216.268 19.2753 217.096 19.1489 217.927 19.1751C219.503 19.1751 220.579 19.4798 221.168 20.0786C221.756 20.6776 222.055 21.7177 222.055 23.1887V34.5569H227.488V22.1485C227.508 20.8109 227.245 19.4841 226.715 18.2558C226.215 17.1271 225.378 16.1803 224.32 15.545Z" fill="white"/>
<path d="M249.985 14.9152H243.691L238.968 22.3119H235.901V8.19092H230.511V34.5469H235.901V27.1502H239.048L243.654 34.5469H249.948L243.297 24.2031L249.985 14.9152Z" fill="white"/>
</svg>
