<svg width="33" height="33" viewBox="0 0 33 33" fill="none" xmlns="http://www.w3.org/2000/svg">
<g clip-path="url(#clip0_65_356)">
<path d="M24.2603 5.16818L4.33877 8.35504C3.55352 8.48208 2.82626 8.84079 2.25617 9.38226C1.68607 9.92372 1.30088 10.6216 1.15311 11.3807C1.00533 12.1398 1.10217 12.9233 1.43042 13.6242C1.75866 14.3251 2.30234 14.9095 2.98733 15.2975L9.52945 18.9729C9.68388 19.0644 9.81779 19.185 9.92336 19.3275C10.0289 19.47 10.1041 19.6317 10.1443 19.8031L11.6559 27.001C11.7853 27.6126 12.0704 28.1821 12.4852 28.6579C12.9001 29.1337 13.4315 29.5006 14.0312 29.7253C14.6309 29.95 15.28 30.0254 15.9193 29.9446C16.5586 29.8638 17.168 29.6294 17.692 29.2627C18.1792 28.9143 18.5806 28.4651 18.8669 27.948L28.2902 10.5874C28.6233 9.97004 28.7736 9.27608 28.7245 8.58294C28.6753 7.8898 28.4285 7.22473 28.0116 6.66194C27.5948 6.09915 27.0243 5.66077 26.3637 5.39571C25.7032 5.13065 24.9786 5.04934 24.2708 5.16084L24.2603 5.16818ZM26.0047 9.43561L16.5814 26.7962C16.4549 27.0205 16.261 27.2023 16.0257 27.3173C15.7904 27.4323 15.525 27.4749 15.2649 27.4395C15.0049 27.4041 14.7628 27.2923 14.5709 27.1192C14.3791 26.946 14.2468 26.7198 14.1917 26.4708L12.6696 19.2803C12.6483 19.185 12.6212 19.091 12.5885 18.9988L19.8094 13.9427C20.0874 13.748 20.275 13.4547 20.3309 13.1272C20.3868 12.7998 20.3065 12.4649 20.1076 12.1964C19.9087 11.9279 19.6076 11.7477 19.2704 11.6955C18.9332 11.6432 18.5876 11.7232 18.3097 11.9178L11.0888 16.974C11.0092 16.9146 10.9261 16.8599 10.8399 16.81L4.3083 13.1272C4.08287 12.9975 3.90413 12.8037 3.79604 12.572C3.68794 12.3402 3.65567 12.0814 3.70355 11.8304C3.75143 11.5794 3.87716 11.3481 4.0639 11.1676C4.25064 10.9871 4.48944 10.8659 4.7483 10.8204L24.6699 7.63352C24.9045 7.59827 25.1441 7.62647 25.3625 7.71501C25.5809 7.80355 25.7694 7.949 25.9074 8.13533C26.0454 8.32166 26.1275 8.54165 26.1447 8.77107C26.1619 9.00049 26.1134 9.23045 26.0047 9.43561Z" fill="#03899A"/>
</g>
<defs>
<clipPath id="clip0_65_356">
<rect width="33" height="33" fill="white"/>
</clipPath>
</defs>
</svg>
