<svg width="24" height="25" viewBox="0 0 24 25" fill="none" xmlns="http://www.w3.org/2000/svg">
<path d="M19.5 11.125H17.9062V5.875C17.9062 4.21797 16.5633 2.875 14.9062 2.875H9.09375C7.43672 2.875 6.09375 4.21797 6.09375 5.875V11.125H4.5C4.08516 11.125 3.75 11.4602 3.75 11.875V20.875C3.75 21.2898 4.08516 21.625 4.5 21.625H19.5C19.9148 21.625 20.25 21.2898 20.25 20.875V11.875C20.25 11.4602 19.9148 11.125 19.5 11.125ZM7.78125 5.875C7.78125 5.15078 8.36953 4.5625 9.09375 4.5625H14.9062C15.6305 4.5625 16.2188 5.15078 16.2188 5.875V11.125H7.78125V5.875ZM18.5625 19.9375H5.4375V12.8125H18.5625V19.9375ZM11.3438 16.6797V17.9219C11.3438 18.025 11.4281 18.1094 11.5312 18.1094H12.4688C12.5719 18.1094 12.6562 18.025 12.6562 17.9219V16.6797C12.8497 16.5408 12.9941 16.3441 13.0687 16.1179C13.1432 15.8917 13.1441 15.6477 13.0711 15.4209C12.9982 15.1942 12.8552 14.9965 12.6627 14.8562C12.4702 14.716 12.2382 14.6404 12 14.6404C11.7618 14.6404 11.5298 14.716 11.3373 14.8562C11.1448 14.9965 11.0018 15.1942 10.9289 15.4209C10.8559 15.6477 10.8568 15.8917 10.9313 16.1179C11.0059 16.3441 11.1503 16.5408 11.3438 16.6797Z" fill="#2D31A6" fill-opacity="0.5"/>
</svg>
